<?xml version="1.0" standalone="no"?>
<!DOCTYPE svg PUBLIC "-//W3C//DTD SVG 20010904//EN"
 "http://www.w3.org/TR/2001/REC-SVG-20010904/DTD/svg10.dtd">
<svg version="1.0" xmlns="http://www.w3.org/2000/svg"
 width="685.000000pt" height="685.000000pt" viewBox="0 0 685.000000 685.000000"
 preserveAspectRatio="xMidYMid meet">
<metadata>
Created by potrace 1.14, written by Peter Selinger 2001-2017
</metadata>
<g transform="translate(0.000000,685.000000) scale(0.100000,-0.100000)"
fill="#000000" stroke="none">
<path d="M840 6631 c0 -7 -4 -10 -9 -6 -5 3 -12 1 -16 -5 -4 -6 -21 -9 -40 -7
-18 2 -39 0 -47 -4 -7 -5 -8 -9 -3 -10 6 0 20 -2 32 -3 12 -2 19 2 16 7 -3 6
-1 7 5 3 19 -12 14 -28 -7 -21 -11 3 -22 1 -25 -4 -4 -6 -14 -7 -23 -4 -12 5
-14 3 -8 -7 5 -8 4 -11 -3 -6 -6 4 -8 14 -5 24 5 13 3 14 -6 6 -7 -6 -14 -20
-15 -30 -2 -11 -8 -20 -14 -20 -7 -1 -19 -2 -28 -3 -9 0 -12 -6 -8 -13 4 -6 3
-8 -4 -4 -6 3 -14 2 -17 -4 -5 -8 -11 -8 -20 0 -11 9 -13 7 -9 -14 2 -15 0
-26 -6 -26 -6 0 -8 5 -5 10 3 6 -1 10 -10 10 -9 0 -13 -4 -10 -10 6 -9 -8 -14
-28 -11 -5 1 -6 -3 -3 -8 3 -5 -1 -14 -9 -21 -8 -7 -15 -18 -15 -24 0 -6 5 -3
11 6 15 26 46 41 55 26 4 -7 3 -8 -4 -4 -7 4 -12 2 -12 -4 0 -6 -4 -8 -10 -5
-5 3 -15 -6 -22 -20 l-12 -26 -11 22 c-8 14 -15 18 -19 10 -4 -6 -2 -11 3 -11
6 0 11 -5 11 -11 0 -5 -4 -7 -10 -4 -6 4 -7 -1 -3 -11 4 -12 3 -15 -5 -10 -15
9 -16 -16 -2 -30 6 -6 3 -10 -9 -11 -12 -1 -18 4 -16 15 1 9 0 11 -2 4 -3 -7
-10 -9 -16 -5 -7 3 -3 -4 8 -17 18 -21 18 -23 2 -17 -14 5 -16 3 -9 -9 10 -19
3 -76 -9 -68 -5 3 -6 -2 -3 -10 3 -9 12 -16 20 -16 8 0 14 -6 14 -12 0 -9 4
-8 11 2 9 13 10 13 6 0 -2 -8 3 -24 12 -34 11 -14 12 -17 2 -11 -11 6 -13 4
-8 -7 3 -9 0 -22 -6 -29 -7 -7 -2 -6 9 4 21 17 21 17 17 -10 -3 -16 -1 -24 4
-18 11 14 33 17 33 5 0 -5 -4 -10 -10 -10 -5 0 -10 -5 -10 -11 0 -5 5 -7 12
-3 8 5 9 1 4 -12 -5 -12 -4 -15 2 -9 6 6 12 19 15 30 4 15 5 13 6 -7 1 -17 7
-28 15 -28 8 0 18 -4 21 -10 4 -6 -1 -7 -12 -4 -15 5 -15 4 -3 -5 10 -7 19 -6
31 5 8 7 20 14 25 14 5 0 1 -5 -8 -11 -10 -5 -18 -15 -18 -21 0 -6 3 -8 7 -5
3 4 12 -1 20 -11 14 -16 14 -16 9 1 -3 10 -2 16 3 13 14 -9 10 -57 -5 -63 -8
-3 -14 -9 -14 -14 0 -6 10 -4 23 2 12 6 19 8 15 4 -4 -4 -3 -17 3 -29 9 -20 9
-20 -4 -3 -10 12 -17 14 -22 7 -3 -5 -12 -7 -18 -3 -7 4 -6 0 2 -10 7 -9 18
-14 24 -10 6 4 8 0 4 -9 -8 -22 2 -29 23 -18 16 8 18 5 16 -21 -2 -28 -1 -29
11 -13 12 16 13 16 13 1 0 -9 5 -17 11 -17 5 0 7 4 4 10 -3 6 1 7 10 4 14 -6
14 -8 -2 -19 -10 -7 -22 -11 -27 -8 -5 4 -6 1 -2 -6 5 -7 10 -10 13 -7 3 3 12
-2 20 -10 8 -8 20 -11 26 -7 7 4 6 -1 -2 -10 -12 -15 -9 -21 11 -18 4 0 4 -7
1 -16 -6 -14 -7 -14 -19 2 -7 10 -11 23 -7 29 3 6 2 7 -2 3 -12 -11 -15 -37
-4 -37 5 0 9 -7 9 -16 0 -8 -5 -12 -11 -9 -6 4 -5 -2 3 -14 7 -12 16 -21 21
-21 4 0 6 4 3 8 -2 4 0 14 6 22 8 13 9 12 5 -2 -3 -9 1 -22 9 -29 11 -9 12
-15 3 -26 -10 -11 -9 -12 5 -7 12 5 15 2 10 -12 -5 -15 -4 -16 4 -5 6 8 8 20
5 28 -3 7 1 13 8 13 7 0 9 -3 6 -7 -4 -3 1 -12 11 -20 16 -12 16 -13 -3 -7
-20 6 -20 5 -1 -10 23 -19 40 -21 30 -4 -4 7 -3 8 5 4 6 -4 9 -12 6 -17 -4 -5
-1 -9 4 -9 6 0 11 -5 11 -11 0 -5 -4 -8 -9 -5 -10 7 -8 -9 4 -37 4 -9 3 -23
-3 -30 -14 -17 -12 -28 9 -56 10 -13 16 -28 12 -35 -12 -18 -14 -46 -4 -46 6
0 13 5 17 12 4 7 3 8 -4 4 -8 -5 -10 -2 -6 8 5 12 9 13 19 3 9 -9 10 -14 1
-19 -8 -5 -8 -12 -1 -24 12 -18 32 -19 27 -1 -2 7 0 8 4 4 12 -11 14 -67 3
-67 -6 0 -7 -6 -3 -12 4 -7 3 -9 -1 -5 -11 10 -16 39 -6 32 4 -2 8 2 8 10 0
11 -4 12 -14 4 -7 -6 -11 -15 -8 -19 3 -5 -3 -16 -12 -26 -17 -17 -17 -17 -1
-11 10 3 20 1 24 -6 4 -7 4 -9 -1 -5 -4 4 -14 0 -22 -10 -8 -9 -12 -12 -9 -6
3 7 -1 14 -9 18 -9 3 -15 0 -15 -9 0 -17 -16 -20 -25 -4 -5 7 -15 4 -29 -9
-11 -11 -30 -19 -42 -17 -11 1 -21 -4 -21 -12 0 -16 9 -17 25 -1 9 9 12 9 12
0 0 -7 -3 -13 -7 -13 -59 -9 -65 -8 -51 9 10 13 8 13 -9 -2 -19 -16 -23 -36
-7 -36 3 0 2 6 -2 13 -6 9 -5 9 8 0 8 -7 19 -9 23 -5 5 4 5 2 1 -5 -3 -6 -16
-10 -27 -8 -12 3 -31 0 -41 -6 -13 -7 -18 -7 -14 -1 7 12 -13 10 -33 -2 -8 -5
-16 -4 -21 4 -5 8 -9 7 -13 -4 -4 -9 -10 -16 -14 -15 -23 4 -31 -3 -26 -23 4
-19 3 -20 -6 -8 -8 12 -11 12 -11 1 0 -8 -6 -11 -15 -7 -11 4 -15 0 -13 -12 2
-14 -4 -17 -34 -15 -22 2 -38 -2 -38 -8 0 -5 5 -7 12 -3 7 4 8 3 4 -5 -4 -6
-13 -8 -19 -4 -7 4 -25 8 -41 9 -21 1 -25 -1 -15 -8 10 -7 8 -8 -9 -5 -19 5
-21 3 -11 -9 9 -11 9 -14 0 -14 -7 0 -9 -5 -5 -12 4 -7 4 -10 -1 -6 -4 4 -14
3 -21 -3 -9 -7 -19 -7 -33 0 -13 8 -22 8 -26 1 -4 -6 -3 -10 2 -9 20 3 34 -2
28 -11 -3 -5 -13 -7 -23 -4 -9 3 -6 -1 8 -10 l25 -15 -25 3 c-14 1 -32 6 -40
11 -13 8 -13 6 -1 -8 7 -9 17 -15 21 -12 5 3 12 1 15 -5 4 -6 3 -10 -2 -9 -31
5 -42 -16 -18 -33 6 -5 3 -8 -7 -8 -21 0 -32 17 -16 23 8 4 9 6 2 6 -6 1 -18
-7 -25 -16 -8 -9 -9 -14 -4 -11 6 3 16 0 23 -8 11 -12 9 -14 -8 -14 -11 0 -19
-6 -18 -12 2 -7 -3 -12 -9 -10 -7 1 -13 -3 -13 -9 0 -6 9 -8 20 -4 11 4 20 2
20 -4 0 -6 -8 -11 -19 -11 -10 0 -25 -8 -32 -17 -10 -11 -10 -14 -2 -9 16 9
17 -6 1 -22 -9 -9 -9 -15 1 -24 10 -11 11 -9 6 7 -6 17 -5 18 5 5 10 -13 11
-13 7 1 -3 9 1 16 9 16 12 0 12 -3 0 -21 -8 -12 -21 -20 -30 -20 -9 1 -14 -2
-11 -6 3 -5 2 -10 -2 -13 -5 -2 -3 -2 4 -1 6 2 16 -3 22 -10 9 -11 5 -13 -21
-10 -18 1 -27 0 -21 -3 19 -7 16 -23 -4 -23 -15 0 -16 -2 -3 -10 8 -5 11 -10
6 -10 -5 0 -3 -6 3 -14 12 -14 5 -46 -9 -46 -5 0 -10 6 -13 13 -3 6 -2 -14 0
-45 4 -41 2 -58 -6 -58 -7 0 -10 4 -7 8 3 5 -1 9 -9 9 -11 0 -12 -4 -4 -13 7
-8 6 -14 -3 -18 -7 -3 -4 -4 8 -1 13 4 21 0 21 -8 0 -9 -7 -12 -18 -10 -9 3
-20 0 -23 -6 -5 -7 -1 -8 11 -4 16 6 16 4 -2 -18 -12 -14 -14 -19 -4 -11 14
10 18 10 22 -3 4 -8 3 -14 -1 -14 -21 3 -32 -3 -32 -17 0 -8 4 -13 8 -10 5 3
9 -1 9 -9 0 -8 -4 -12 -9 -9 -5 3 -7 -6 -4 -21 4 -22 3 -25 -9 -15 -10 9 -12
17 -5 30 7 13 5 21 -8 31 -15 13 -16 12 -3 -3 7 -10 9 -18 3 -18 -6 0 -9 -8
-7 -17 1 -10 -2 -23 -7 -29 -6 -8 -3 -11 8 -10 9 0 19 -5 21 -11 3 -7 0 -13
-7 -13 -6 0 -8 4 -5 10 3 5 0 7 -9 4 -21 -8 3 -34 24 -26 16 6 15 4 -14 -18
-13 -10 -17 -10 -12 -2 4 6 3 12 -3 12 -5 0 -9 -9 -8 -19 0 -11 4 -18 8 -15 4
2 6 -4 5 -14 0 -10 5 -16 14 -14 10 3 7 -5 -9 -21 -12 -14 -20 -30 -17 -36 4
-7 1 -8 -8 -5 -22 8 -20 19 5 36 20 13 21 14 3 28 -12 10 -15 11 -10 2 5 -8 2
-20 -6 -30 -8 -9 -16 -34 -17 -54 -2 -36 5 -44 32 -39 5 1 6 -3 2 -9 -4 -7
-12 -7 -25 0 -13 7 -21 7 -26 -2 -4 -7 -3 -8 4 -4 7 4 12 1 12 -8 0 -9 -5 -16
-11 -16 -8 0 -8 -5 1 -15 7 -8 10 -22 6 -30 -3 -8 -1 -15 4 -15 6 0 10 7 10
17 0 9 3 14 6 10 3 -3 3 -15 -1 -26 -5 -18 -10 -19 -28 -10 -22 10 -22 10 -2
-6 17 -13 17 -17 6 -25 -12 -7 -12 -11 -2 -23 8 -11 9 -17 1 -22 -8 -5 -8 -10
0 -20 13 -16 10 -75 -5 -75 -5 0 -3 -5 5 -10 8 -5 20 -10 25 -10 6 0 3 5 -5
10 -13 9 -13 10 0 10 11 0 12 2 3 8 -8 5 -9 13 -3 22 11 16 11 16 14 -40 0
-14 10 -30 22 -37 12 -7 24 -26 28 -43 4 -22 10 -29 18 -24 7 4 5 -2 -5 -13
-9 -11 -15 -22 -12 -25 3 -3 -2 -11 -12 -19 -15 -13 -16 -12 -9 6 5 11 9 25 9
32 0 7 5 9 10 6 6 -3 7 -1 3 6 -12 19 -32 -4 -31 -36 0 -22 4 -27 20 -25 16 3
17 2 6 -12 -7 -9 -18 -13 -25 -9 -6 3 -6 0 2 -8 16 -17 16 -32 -1 -23 -6 4 -4
-1 5 -11 22 -24 33 -14 18 15 -7 13 -7 20 -2 16 6 -3 12 -1 14 6 3 7 7 5 11
-6 5 -11 3 -15 -5 -10 -8 5 -9 2 -5 -11 9 -23 -10 -46 -31 -38 -9 3 -14 3 -10
-1 6 -7 27 -13 53 -15 6 -1 4 -5 -4 -10 -7 -5 -23 -6 -35 -4 -12 3 -17 1 -11
-4 6 -4 10 -18 9 -30 -1 -12 2 -20 7 -17 4 2 6 11 2 19 -3 8 -1 15 4 15 13 0
13 -32 1 -47 -6 -7 -15 -10 -22 -6 -6 3 -6 0 1 -8 7 -7 13 -20 13 -28 0 -14
-1 -14 -10 -1 -5 8 -10 10 -10 4 0 -14 35 -46 43 -38 3 3 4 -2 2 -13 -2 -10
-4 -18 -5 -18 -1 0 -3 -10 -6 -22 -2 -14 1 -21 9 -19 6 1 9 1 4 -1 -4 -3 -7
-11 -7 -19 0 -8 -4 -14 -9 -14 -5 0 -8 7 -7 16 0 9 -6 19 -14 21 -13 4 -13 3
0 -6 13 -9 13 -12 1 -20 -11 -7 -9 -10 7 -16 12 -3 21 -9 21 -13 -3 -22 2 -32
13 -26 7 4 5 -2 -5 -13 -9 -11 -15 -22 -12 -25 3 -3 -2 -11 -12 -19 -15 -13
-16 -12 -9 6 5 11 9 25 9 32 0 7 5 9 10 6 6 -3 7 -1 3 6 -12 19 -32 -4 -31
-36 0 -22 4 -27 20 -25 16 3 17 2 6 -12 -7 -9 -18 -13 -25 -9 -6 3 -6 0 1 -8
17 -17 17 -32 1 -23 -7 4 -5 -1 4 -11 22 -24 33 -14 18 15 -7 13 -7 20 -2 16
6 -3 12 -1 14 6 3 7 7 5 11 -6 5 -11 3 -15 -5 -10 -8 5 -9 2 -5 -11 9 -23 -10
-46 -31 -38 -9 3 -14 3 -10 -1 6 -7 27 -13 53 -15 6 -1 4 -5 -4 -10 -7 -5 -23
-6 -35 -4 -15 3 -17 2 -8 -5 17 -12 17 -22 0 -34 -10 -8 -10 -9 2 -5 8 2 14
10 13 16 -2 6 1 11 6 11 17 0 7 -40 -13 -58 -20 -16 -20 -16 -7 1 9 11 10 17
2 17 -6 0 -11 -4 -11 -8 0 -5 -10 -14 -23 -21 -21 -10 -21 -11 -1 -6 14 4 24
0 27 -9 4 -10 1 -13 -9 -9 -17 6 -18 -8 -1 -26 8 -9 8 -12 0 -7 -6 3 -13 1
-16 -6 -2 -7 -3 -6 -2 3 1 9 -3 16 -10 16 -7 0 -10 -10 -7 -24 3 -14 0 -23 -8
-23 -10 0 -10 -3 0 -15 7 -8 10 -22 6 -30 -3 -8 -1 -15 4 -15 5 0 10 6 13 13
2 6 2 1 0 -11 -2 -13 0 -21 5 -18 5 3 9 -1 9 -9 0 -8 -5 -15 -11 -15 -6 0 -5
-5 2 -12 15 -15 15 -28 1 -28 -5 0 -8 4 -4 9 3 6 -3 14 -12 20 -10 6 -12 11
-5 11 20 0 14 18 -11 30 -20 10 -21 10 -4 -3 11 -10 14 -18 8 -22 -7 -4 -5
-14 5 -31 15 -22 12 -29 -9 -25 -4 1 -3 -8 3 -19 8 -15 17 -19 31 -15 20 7 27
-9 9 -20 -16 -10 -12 -55 4 -55 8 0 17 -4 20 -9 4 -5 -4 -7 -16 -4 -13 3 -19
1 -13 -4 9 -8 14 -28 16 -81 1 -12 6 -25 11 -28 5 -3 4 -13 -4 -22 -10 -14
-10 -15 2 -5 8 7 21 13 29 13 13 -1 13 -2 -2 -11 -9 -5 -17 -15 -17 -21 0 -7
5 -6 14 2 13 10 14 7 10 -14 -2 -15 0 -26 6 -26 6 0 9 4 6 8 -2 4 0 14 6 22 8
12 9 12 4 -2 -3 -11 0 -18 7 -18 7 -1 3 -6 -8 -13 -11 -7 -21 -17 -22 -24 -3
-13 22 -12 34 2 4 4 2 5 -5 1 -6 -4 -12 -2 -12 4 0 7 6 10 13 7 6 -2 11 -12 9
-22 -2 -12 1 -15 10 -10 10 6 11 5 1 -6 -15 -16 -17 -33 -3 -24 5 3 10 1 10
-4 0 -6 -7 -11 -15 -11 -8 0 -15 -4 -15 -10 0 -5 7 -7 15 -4 8 4 15 1 15 -4 0
-6 -8 -13 -17 -15 -17 -4 -17 -5 0 -6 19 -1 24 -31 5 -31 -9 0 -9 -3 1 -9 8
-5 11 -16 8 -26 -4 -9 -3 -13 2 -10 13 7 26 -14 26 -43 0 -12 5 -21 10 -20 6
2 9 6 8 10 -2 5 2 8 8 8 6 0 8 -7 5 -15 -19 -46 -19 -50 -2 -30 11 14 14 15
10 4 -3 -10 1 -19 10 -22 14 -6 15 -42 1 -56 -4 -3 -4 7 -1 22 2 15 1 27 -4
27 -5 0 -8 -12 -7 -27 2 -19 8 -27 25 -28 29 -2 37 -11 17 -19 -9 -3 -13 -2
-10 4 4 6 -1 7 -11 3 -11 -4 -13 -8 -6 -11 7 -2 9 -9 6 -14 -5 -7 -2 -8 6 -3
9 6 10 2 5 -15 -6 -19 -4 -22 12 -18 12 3 20 0 20 -8 0 -7 -5 -10 -11 -7 -6 3
1 -5 17 -20 27 -26 37 -44 17 -32 -6 3 -13 -1 -16 -9 -3 -9 -11 -13 -18 -9 -7
4 -7 1 1 -9 7 -8 11 -17 8 -20 -3 -2 2 -5 10 -5 8 0 12 4 9 9 -3 4 -1 8 4 8 6
0 13 -7 16 -16 4 -9 2 -13 -5 -8 -7 4 -10 1 -7 -7 3 -8 12 -13 19 -11 8 2 11
0 6 -4 -4 -4 1 -17 10 -28 15 -17 15 -18 2 -8 -14 10 -18 10 -22 -2 -4 -9 3
-22 15 -30 12 -9 19 -19 15 -22 -12 -12 14 -33 31 -26 15 5 15 4 -1 -12 -10
-10 -15 -21 -12 -24 3 -4 9 -2 13 3 4 6 13 11 21 13 12 3 12 0 2 -12 -10 -12
-9 -14 11 -9 18 4 20 3 8 -6 -8 -6 -10 -11 -4 -11 5 0 16 6 23 12 11 11 12 8
6 -12 l-8 -25 22 25 c12 15 20 19 19 10 -2 -8 -7 -19 -13 -23 -6 -5 -4 -7 5
-6 30 3 41 -1 34 -13 -5 -7 -3 -8 7 -2 25 16 36 12 54 -18 9 -17 20 -26 24
-22 8 11 61 13 61 2 0 -4 7 -5 15 -2 13 5 13 9 3 23 -12 14 -11 15 5 2 11 -9
14 -17 8 -25 -7 -8 -3 -12 15 -14 13 -1 24 4 24 11 0 8 3 7 9 -3 6 -8 7 -18 4
-24 -4 -5 1 -7 11 -3 14 6 16 3 11 -16 -5 -19 -4 -20 5 -4 8 13 16 15 29 7 10
-5 21 -7 25 -5 3 3 2 -1 -4 -7 -13 -16 -13 -28 1 -28 5 0 7 5 4 10 -3 6 -2 10
2 10 5 0 14 -10 22 -22 13 -21 14 -21 27 -3 9 12 14 14 14 6 0 -11 3 -11 18 0
9 7 14 9 9 4 -4 -4 1 -18 10 -29 14 -15 14 -18 2 -8 -9 6 -20 8 -24 4 -5 -4
-5 -2 -2 4 3 6 0 11 -8 11 -8 0 -16 -6 -19 -12 -2 -7 5 -11 17 -10 12 1 31 -5
41 -14 11 -9 16 -10 12 -3 -4 6 -2 12 3 12 6 0 11 -5 11 -11 0 -6 12 -9 28 -7
23 2 27 -1 26 -20 0 -12 4 -21 10 -19 6 2 11 9 11 15 0 5 4 14 9 19 5 5 6 3 2
-4 -4 -8 -2 -13 5 -13 8 0 8 -4 -2 -16 -11 -13 -11 -15 2 -14 33 5 48 0 43
-15 -4 -11 -2 -13 9 -10 8 4 21 0 28 -8 8 -7 26 -12 41 -12 19 1 25 -2 20 -9
-5 -6 -3 -22 5 -36 l15 -25 -6 27 c-3 15 -1 30 4 33 6 4 10 3 9 -2 -3 -20 2
-34 11 -28 6 3 10 -1 10 -9 0 -9 -6 -16 -12 -16 -7 -1 -2 -7 11 -14 13 -7 32
-11 43 -8 10 2 18 -1 18 -7 0 -6 5 -11 11 -11 5 0 7 5 4 10 -3 6 -1 10 4 10
17 0 13 -18 -6 -30 -16 -10 -15 -10 4 -5 12 3 24 1 27 -4 4 -5 15 -8 26 -6 11
2 23 -1 26 -7 4 -7 2 -8 -4 -4 -7 4 -12 3 -12 -2 0 -15 24 -30 43 -26 18 2 18
2 1 -17 -15 -17 -15 -19 -1 -19 8 0 18 6 21 13 3 6 3 1 0 -12 -5 -20 -3 -23
10 -18 10 4 15 3 11 -3 -11 -17 19 -45 47 -44 15 1 25 -3 22 -7 -3 -5 4 -16
15 -25 11 -10 17 -24 13 -32 -4 -11 -2 -13 9 -7 11 7 11 5 -1 -10 -14 -16 -13
-17 8 -11 16 5 22 3 22 -8 0 -10 -6 -13 -17 -9 -15 5 -15 3 2 -10 26 -20 51
-11 33 12 -10 14 -10 14 2 3 8 -7 15 -18 15 -25 1 -7 6 -11 11 -10 6 1 11 -5
11 -13 0 -11 -4 -11 -21 3 -19 16 -19 16 -7 1 7 -9 10 -22 6 -27 -3 -7 0 -8 9
-5 11 4 16 0 16 -11 0 -9 -4 -13 -10 -10 -5 3 -10 2 -10 -2 0 -5 10 -14 23
-22 19 -12 20 -12 10 0 -8 10 -9 19 -2 29 8 12 9 11 7 -5 -2 -12 2 -19 10 -17
8 1 11 -2 8 -7 -4 -5 -3 -11 1 -14 5 -2 2 -2 -4 -1 -7 2 -13 -1 -13 -6 0 -6 5
-10 10 -10 6 0 10 -5 10 -11 0 -5 -6 -7 -12 -3 -7 4 -9 3 -5 -1 14 -16 39 -15
33 1 -3 8 -1 12 4 9 5 -3 8 -16 6 -27 -1 -13 8 -34 23 -51 14 -16 27 -34 27
-40 1 -7 2 -18 3 -25 0 -7 5 -11 9 -8 4 2 9 -4 10 -15 1 -10 3 -27 4 -38 2
-12 8 -16 21 -13 17 4 17 6 3 14 -9 5 -16 13 -16 18 0 6 9 2 19 -7 11 -9 17
-23 14 -32 -5 -13 -3 -14 8 -3 7 6 18 12 23 12 6 0 4 -5 -4 -10 -10 -6 -11
-10 -3 -10 7 0 12 -3 12 -7 -3 -19 2 -36 8 -30 3 4 12 2 18 -3 9 -8 14 -6 19
5 3 9 2 14 -3 10 -13 -7 -42 5 -35 16 3 5 10 9 15 9 6 0 7 -4 4 -10 -3 -5 -2
-10 4 -10 5 0 12 6 14 13 4 9 6 9 6 0 1 -7 10 -13 21 -13 11 0 20 -4 20 -10 0
-5 -6 -7 -14 -4 -8 3 -17 1 -21 -5 -3 -7 0 -8 9 -5 10 4 16 1 16 -7 1 -9 4 -8
11 3 5 10 14 18 19 18 14 0 39 -30 36 -43 -1 -7 -1 -9 1 -5 2 4 12 4 21 1 13
-4 12 -2 -3 11 -11 10 -14 15 -8 11 7 -3 23 -1 35 5 19 9 21 9 8 -2 -18 -16
-25 -48 -10 -48 5 0 10 7 10 15 0 8 4 15 10 15 5 0 7 -7 4 -15 -4 -10 0 -15
11 -15 10 0 13 5 9 12 -4 7 -3 8 5 4 6 -4 9 -12 6 -17 -4 -5 -1 -9 4 -9 6 0
11 5 11 11 0 5 5 7 10 4 12 -7 14 -26 3 -24 -19 3 -33 -2 -33 -12 0 -6 5 -7
13 -2 17 11 31 10 40 -2 6 -6 7 -3 4 7 -3 9 -3 19 0 22 8 8 33 -13 33 -28 0
-6 -5 -4 -10 4 -5 8 -10 10 -10 5 0 -14 21 -35 34 -35 6 0 4 5 -4 10 -11 8 -5
10 23 8 32 -2 36 -5 32 -23 -5 -18 -5 -18 5 -2 6 9 16 15 21 11 5 -3 16 0 24
6 9 8 15 8 15 2 0 -6 -6 -12 -13 -15 -9 -3 -9 -7 0 -17 8 -9 13 -7 18 10 7 22
7 22 25 -6 11 -15 17 -31 15 -34 -2 -4 2 -7 10 -7 10 0 11 5 5 17 -7 13 -3 16
20 15 15 0 26 -4 23 -9 -3 -4 4 -5 15 -2 12 4 26 1 35 -8 16 -17 62 -28 71
-18 11 10 37 11 30 1 -3 -5 2 -12 11 -16 10 -3 21 0 26 8 5 8 9 9 9 3 0 -6 10
-11 22 -10 11 0 23 -6 25 -14 4 -12 3 -12 -5 -1 -8 11 -10 11 -15 0 -4 -11 -6
-11 -6 0 -1 11 -5 10 -17 -5 -15 -19 -16 -19 -9 1 5 15 3 17 -6 8 -15 -15 -2
-38 15 -24 9 7 16 7 23 0 8 -8 13 -8 17 0 4 6 20 11 37 11 16 0 28 3 26 8 -1
4 1 8 6 10 18 6 27 1 27 -15 0 -15 -1 -15 -13 1 -12 16 -13 16 -13 -2 0 -20
11 -23 34 -8 17 10 74 -13 65 -27 -3 -6 -1 -7 6 -3 9 6 9 11 1 21 -9 11 -7 12
9 8 12 -3 18 -10 14 -16 -3 -6 -1 -7 5 -3 7 4 12 2 12 -3 0 -6 5 -11 11 -11 8
0 9 4 0 13 -6 8 -8 17 -4 21 4 4 13 -4 21 -16 7 -13 11 -15 8 -6 -3 10 0 20 6
24 6 4 8 3 4 -4 -3 -6 -2 -13 4 -17 5 -3 10 -1 10 5 0 6 5 8 13 3 18 -11 36
-12 43 -2 3 5 10 7 15 4 5 -4 9 -1 9 6 0 7 6 4 14 -7 12 -15 18 -17 34 -7 15
9 19 8 19 -3 0 -7 -4 -11 -9 -8 -4 3 -5 -3 -1 -13 6 -15 9 -14 17 10 5 15 14
27 18 27 5 0 4 -9 -2 -19 -7 -13 -7 -22 0 -26 10 -6 11 -5 14 15 0 6 6 10 11
9 6 0 9 -7 7 -14 -2 -10 6 -13 28 -10 20 2 33 -2 41 -13 9 -15 10 -15 6 -1 -4
12 1 17 19 17 14 0 21 -5 17 -11 -3 -6 -1 -7 5 -3 17 10 15 15 -10 26 -22 8
-21 9 5 7 16 -1 27 -7 27 -15 0 -8 6 -12 14 -9 7 3 19 0 26 -6 10 -10 10 -8 1
10 -9 18 -8 21 7 19 9 -2 21 2 25 8 6 7 7 6 4 -4 -2 -8 -10 -14 -16 -12 -7 1
-10 -2 -7 -7 3 -5 15 -7 26 -4 11 3 17 10 13 16 -4 6 -1 7 7 2 10 -6 12 -3 7
11 -6 17 -6 17 5 3 7 -9 21 -15 31 -13 9 1 15 -2 12 -6 -3 -5 -14 -7 -24 -5
-11 2 -22 -3 -25 -11 -4 -11 -1 -12 12 -6 25 11 47 9 66 -7 13 -11 16 -11 14
-1 -2 7 3 15 11 18 9 3 11 0 6 -8 -6 -9 -4 -11 4 -5 9 5 10 10 2 18 -7 7 -14
7 -24 -2 -12 -9 -16 -8 -20 3 -4 9 -1 18 5 22 7 4 8 3 4 -4 -9 -15 -1 -15 26
-1 15 8 19 8 14 0 -10 -15 7 -14 22 1 8 8 12 9 12 1 0 -6 -6 -13 -12 -16 -10
-3 -10 -8 1 -18 9 -9 11 -9 7 -1 -4 6 -3 12 1 12 5 0 15 -6 22 -12 11 -11 12
-10 6 0 -4 8 -2 13 6 11 30 -4 48 2 45 14 -1 6 -1 8 2 4 2 -4 10 -3 17 3 10 8
15 8 21 -1 4 -7 3 -9 -4 -5 -6 4 -16 -4 -23 -16 -10 -20 -10 -21 2 -12 8 7 26
11 42 9 15 -2 27 1 27 7 0 6 8 4 18 -3 15 -12 16 -12 5 1 -9 12 -6 19 15 35
21 15 24 15 13 2 -14 -18 -2 -24 15 -7 7 7 17 4 31 -9 17 -17 22 -18 27 -6 3
8 2 14 -2 12 -4 -1 -8 1 -10 6 -5 16 -1 19 13 7 12 -10 15 -10 15 1 0 8 6 6
16 -7 11 -13 14 -14 11 -4 -3 11 2 16 16 18 12 0 17 -2 11 -6 -13 -8 -15 -44
-2 -36 5 3 5 10 2 16 -5 7 4 9 24 6 17 -2 29 -1 27 3 -3 4 6 6 19 5 13 0 23
-5 21 -11 -1 -5 0 -7 2 -2 3 4 9 5 14 2 5 -4 6 2 2 11 -5 13 -3 15 8 8 25 -16
37 -12 33 10 -4 20 -4 20 7 -1 7 -13 16 -23 22 -23 5 0 4 7 -3 15 -10 13 -11
18 -1 28 10 9 11 8 6 -4 -4 -11 0 -18 14 -22 14 -3 22 1 26 12 6 20 32 24 32
5 0 -7 -6 -10 -14 -7 -7 3 -13 0 -13 -5 0 -6 9 -9 20 -7 11 2 22 0 25 -5 7
-11 45 10 45 24 0 4 -7 2 -17 -5 -15 -13 -15 -12 -2 9 14 22 14 22 23 2 11
-24 32 -21 28 4 -2 9 2 16 8 16 5 0 10 -4 10 -10 0 -5 5 -10 11 -10 5 0 8 4 5
9 -4 5 3 7 14 4 16 -4 19 -2 14 13 -6 17 -5 17 9 -1 9 -11 17 -15 17 -10 0 6
5 3 10 -5 8 -13 11 -11 16 8 4 12 14 23 23 23 87 8 88 8 71 19 -12 7 -10 9 7
7 17 -1 20 -5 12 -18 -6 -12 -5 -20 1 -24 6 -4 9 -1 8 7 -2 7 3 12 10 10 8 -1
11 2 6 9 -5 9 -2 10 9 6 9 -3 19 -1 23 5 4 7 9 6 15 -3 6 -10 9 -8 9 9 0 12 5
22 11 22 5 0 7 6 3 13 -4 7 -2 7 7 -2 11 -10 11 -15 2 -18 -7 -3 -13 -9 -13
-15 0 -7 4 -7 13 0 7 6 22 10 33 8 10 -2 14 -1 7 1 -6 2 -14 10 -17 18 -3 10
0 12 12 8 14 -6 15 -4 4 9 -10 13 -10 18 -1 24 7 4 9 3 5 -4 -3 -6 -2 -13 4
-17 6 -4 8 -11 5 -16 -4 -5 -1 -9 4 -9 6 0 11 4 11 9 0 6 9 8 20 6 23 -4 36
10 19 21 -7 4 -9 3 -6 -3 3 -5 0 -10 -7 -10 -7 0 -13 6 -13 13 0 7 11 10 30 7
19 -3 27 -1 23 6 -5 7 -1 8 10 4 12 -4 15 -3 10 5 -4 7 -3 12 2 12 5 0 13 -9
18 -19 8 -18 10 -18 24 -3 13 14 13 15 -1 10 -9 -3 -16 -1 -16 6 0 7 16 10 41
9 23 -1 33 0 23 3 -9 3 -15 9 -12 14 3 5 13 6 22 3 10 -4 14 -2 10 4 -5 7 1 9
15 5 12 -3 19 -1 15 4 -3 6 -2 16 2 23 6 10 10 9 14 -4 5 -11 3 -14 -6 -9 -8
5 -7 2 2 -9 14 -18 26 -23 16 -8 -3 5 -1 12 4 16 6 3 9 11 7 18 -1 7 -1 9 1 6
2 -4 13 -4 25 -1 15 3 19 1 14 -7 -4 -6 -11 -9 -16 -6 -4 3 -11 -2 -14 -10 -5
-13 -2 -14 17 -3 12 7 25 12 29 13 4 0 13 6 20 14 8 9 8 11 1 7 -6 -3 -14 -2
-17 2 -3 5 5 9 17 8 12 -1 21 -8 19 -15 -1 -7 2 -10 8 -6 8 5 7 12 -2 23 -11
13 -11 15 3 10 21 -8 39 10 31 31 -5 13 -3 14 10 3 13 -10 15 -9 10 13 -2 14
0 25 7 25 5 0 8 -6 5 -14 -3 -8 -1 -17 5 -21 7 -3 8 0 5 9 -4 10 -1 16 7 16
11 0 11 3 -1 10 -13 9 -13 10 0 11 8 1 18 1 23 0 4 0 7 4 7 10 0 6 -9 8 -20 4
-11 -4 -20 -2 -20 4 0 6 5 12 10 12 6 1 14 2 20 3 5 0 15 7 22 13 10 10 9 13
-2 13 -11 0 -11 3 -2 12 7 7 12 17 12 23 0 5 -4 4 -9 -3 -7 -11 -9 -11 -14 1
-4 11 1 14 18 13 20 -3 22 0 15 24 -8 28 1 54 20 56 5 1 16 2 23 3 8 1 9 4 1
9 -13 8 -15 44 -2 36 5 -3 6 -9 4 -13 -3 -3 4 -7 14 -7 10 0 16 4 13 9 -2 4 1
14 7 22 9 11 9 15 1 15 -6 0 -11 -4 -11 -10 0 -5 -5 -10 -11 -10 -8 0 -7 5 2
16 7 8 21 13 31 11 10 -3 16 -1 12 4 -3 5 -1 9 4 9 6 0 12 7 16 15 5 13 2 13
-20 -1 -13 -9 -27 -14 -31 -10 -3 3 -1 6 6 6 7 0 9 4 6 10 -3 6 1 7 9 4 14 -6
21 5 17 29 0 4 3 7 9 7 5 0 10 -4 10 -10 0 -5 4 -10 10 -10 6 0 6 10 0 28
l-10 27 20 -25 c15 -19 18 -20 13 -6 -4 14 -3 17 6 12 13 -9 11 15 -3 25 -5 4
1 10 13 14 12 3 19 11 15 16 -3 5 -2 9 3 8 4 -1 15 -1 23 0 13 1 13 2 0 12
-12 9 -11 10 8 6 25 -6 28 2 10 23 -7 8 -3 6 10 -4 19 -16 22 -17 22 -3 0 8
-6 18 -12 20 -8 3 -6 6 5 6 9 1 17 -3 17 -7 0 -5 6 -9 13 -9 8 0 14 6 14 13 0
7 -4 11 -9 8 -4 -3 -8 0 -8 5 0 15 23 14 39 -2 10 -10 11 -9 6 6 -5 11 -2 17
7 17 8 0 23 9 33 20 10 11 22 17 28 13 5 -3 7 -1 4 4 -4 6 3 13 15 16 18 5 19
8 8 22 -11 13 -10 15 4 9 12 -4 15 -2 10 9 -3 8 0 18 7 23 8 4 10 3 5 -4 -4
-7 -2 -20 3 -29 8 -15 11 -15 12 -3 1 8 1 20 0 27 -1 6 4 15 10 19 8 4 9 3 5
-4 -4 -7 -1 -12 8 -12 8 0 18 5 21 10 4 6 10 8 15 5 5 -3 11 -2 14 3 8 13 -28
11 -36 -2 -7 -10 -9 -5 -8 22 1 4 13 5 27 4 21 -3 25 -1 19 14 -5 13 -4 15 7
6 8 -7 17 -9 20 -5 4 3 14 0 23 -8 16 -13 16 -12 6 8 -17 32 -15 38 6 13 l18
-22 1 21 c1 12 -2 19 -8 16 -5 -4 -9 -1 -9 4 0 6 7 11 16 11 9 0 12 5 8 12 -4
6 -3 8 4 4 6 -3 16 2 22 11 10 16 11 16 6 1 -7 -23 9 -32 31 -18 17 11 17 11
1 6 -10 -3 -18 0 -18 5 0 7 11 9 25 7 15 -3 22 -1 18 5 -4 6 0 8 10 4 12 -4
15 -1 12 15 -3 16 -2 19 7 10 7 -7 19 -7 33 -2 13 5 25 7 28 4 2 -3 3 7 2 21
-2 14 1 23 6 19 5 -3 7 -9 5 -13 -3 -4 9 -7 27 -6 19 2 31 7 29 14 -1 7 3 11
10 10 28 -3 38 2 38 19 0 9 9 23 20 30 24 14 35 15 35 3 0 -18 12 -21 36 -11
l24 10 -25 -4 c-20 -4 -26 -1 -26 12 0 11 8 19 21 20 16 1 17 -1 5 -9 -13 -9
-13 -10 0 -6 8 2 15 11 15 20 0 8 4 19 8 24 5 4 8 4 7 -2 -7 -32 -1 -34 73
-26 11 1 8 31 -4 31 -5 0 -8 -4 -4 -9 3 -5 1 -12 -5 -16 -15 -9 -12 21 4 34
11 9 15 8 20 -4 3 -9 10 -14 15 -11 5 4 12 1 14 -4 3 -6 4 -5 2 2 -1 7 -9 11
-16 10 -8 -2 -11 0 -6 4 12 13 49 15 42 3 -4 -6 1 -5 13 2 11 7 18 17 16 23
-2 6 8 12 23 13 25 1 26 0 10 -12 -16 -12 -16 -13 -1 -19 9 -4 19 -4 22 -1 3
3 0 5 -8 5 -10 0 -10 3 0 15 10 12 16 13 28 3 9 -7 13 -8 9 -2 -5 9 11 29 40
47 6 4 15 2 19 -4 4 -7 3 -9 -4 -5 -6 3 -14 1 -18 -5 -4 -8 -3 -9 4 -5 7 4 12
1 12 -6 0 -10 2 -10 8 -1 5 7 8 36 8 63 -1 43 1 48 12 33 15 -21 16 -36 0 -27
-7 4 -8 3 -4 -4 4 -6 14 -8 22 -5 11 4 12 9 5 16 -6 6 -11 20 -11 32 0 12 -6
27 -12 35 -7 8 -4 7 7 -2 12 -10 26 -14 34 -9 9 6 7 10 -9 14 -18 5 -20 9 -11
26 14 26 14 44 -1 35 -7 -4 -8 -3 -4 5 4 6 12 9 17 5 6 -3 15 8 22 25 6 17 15
31 20 31 4 0 3 -10 -3 -23 -10 -20 -9 -20 9 3 11 14 19 31 16 38 -2 6 1 12 8
12 9 0 9 2 0 8 -8 5 -8 11 1 24 7 10 17 14 21 10 5 -4 5 -2 1 5 -8 14 -36 6
-33 -9 1 -6 -5 -13 -13 -15 -13 -4 -13 -3 0 6 13 10 13 11 0 11 -8 0 0 10 18
21 33 22 43 35 17 25 -8 -3 -15 -1 -15 4 0 6 4 10 9 10 4 0 7 15 6 33 -1 20 4
34 10 34 7 0 11 -14 9 -34 -1 -18 1 -33 6 -33 5 0 7 14 5 30 -2 18 0 28 5 25
6 -4 7 1 3 11 -5 13 -3 15 7 9 8 -5 11 -4 6 3 -3 6 -16 9 -27 7 -19 -4 -20 -3
-7 13 16 19 17 30 5 50 -5 7 -4 12 2 12 10 0 15 -13 13 -31 -1 -3 5 -6 13 -6
9 0 11 5 6 16 -5 9 -6 22 -3 30 3 10 0 11 -9 5 -11 -6 -12 -5 -2 7 10 12 10
18 0 29 -9 10 -9 11 1 6 7 -4 12 -1 12 8 0 8 -3 16 -7 19 -5 2 -3 3 2 1 6 -1
19 4 30 12 14 10 15 14 4 14 -12 0 -12 2 1 10 8 5 10 10 3 10 -6 0 -10 8 -8
18 2 9 4 17 5 17 1 0 3 10 4 22 1 12 -1 20 -6 17 -13 -8 -10 10 4 25 9 10 9
12 1 7 -6 -3 -14 -2 -18 4 -4 6 -11 8 -16 5 -5 -3 -6 2 -2 11 4 10 2 15 -3 11
-10 -6 -12 4 -15 68 -2 48 0 57 13 49 7 -4 8 -3 4 4 -4 6 -14 8 -22 5 -13 -5
-14 -2 -6 13 6 10 13 27 16 37 3 10 10 15 16 12 6 -4 7 1 3 10 -4 12 -8 13
-13 5 -5 -8 -9 -7 -13 5 -4 9 -3 14 2 11 11 -7 23 22 15 35 -3 5 -11 6 -17 2
-7 -4 -6 0 2 10 7 9 19 17 25 17 7 0 6 -3 -2 -9 -10 -6 -10 -10 3 -21 13 -11
14 -10 9 5 -6 14 -4 16 6 10 9 -6 11 -4 5 5 -4 7 -2 16 6 22 10 7 8 8 -8 3
-12 -3 -24 -1 -28 4 -3 6 0 8 9 5 11 -4 14 2 12 25 -1 16 2 28 6 25 4 -3 9 0
9 5 1 6 2 17 3 24 1 6 -2 18 -8 25 -7 9 -5 12 5 10 8 -2 13 3 11 10 -1 8 2 11
8 7 8 -5 7 -11 -1 -21 -6 -8 -7 -14 -3 -14 14 0 36 39 28 51 -3 6 1 16 11 22
9 7 17 19 18 27 2 8 6 21 11 29 5 7 5 16 0 20 -5 3 -10 24 -11 46 -2 28 1 35
7 25 5 -8 10 -10 10 -5 0 30 -17 31 -33 3 -14 -24 -14 -29 -3 -25 15 6 15 -20
0 -45 -4 -6 -3 -8 4 -4 6 3 13 2 17 -4 3 -5 0 -10 -8 -10 -21 0 -27 11 -17 30
7 13 6 20 -5 24 -12 4 -12 9 0 33 8 15 15 33 15 40 0 7 7 10 18 7 16 -5 16 -5
-1 6 -19 13 -41 4 -31 -12 4 -7 2 -8 -5 -4 -9 6 -9 11 -1 21 7 8 9 19 6 24 -4
5 -2 13 4 16 8 5 8 11 1 19 -14 16 -4 26 17 19 12 -4 10 1 -5 16 -31 30 -29
37 5 15 19 -12 23 -13 15 -3 -9 12 -10 18 -1 27 8 8 5 10 -13 6 -22 -5 -22 -4
-5 7 18 11 18 12 -5 31 -13 11 -18 17 -11 13 6 -3 12 -1 12 5 0 6 4 9 9 5 5
-3 12 -1 15 4 4 5 1 13 -5 17 -8 4 -7 9 2 16 10 6 7 7 -8 3 -18 -5 -22 -3 -17
9 3 9 11 13 18 9 6 -3 8 -3 4 2 -4 4 -2 15 4 24 10 13 10 14 -2 4 -8 -7 -23
-13 -35 -12 -15 0 -16 2 -5 7 8 4 16 14 18 22 2 8 11 23 19 33 16 17 9 23 -20
18 -5 -1 -7 4 -5 11 3 7 10 13 15 13 6 0 14 3 17 6 11 11 -29 6 -44 -5 -13
-10 -13 -9 0 8 8 10 15 24 16 30 4 40 3 39 21 25 10 -8 6 0 -7 17 -14 17 -29
29 -34 26 -5 -3 -6 0 -2 7 4 6 11 9 15 7 4 -3 13 0 21 6 12 8 12 9 -2 4 -15
-4 -18 1 -18 36 0 25 -6 45 -16 52 -13 10 -13 12 5 12 11 0 18 -4 15 -7 -2 -4
0 -10 5 -13 5 -4 8 2 7 11 -2 10 -8 18 -14 18 -15 0 -16 20 -2 21 6 1 16 2 23
3 9 1 8 4 -2 10 -8 5 -21 7 -30 4 -15 -4 -15 -3 0 9 9 7 14 19 11 26 -2 7 1
19 7 26 8 9 7 13 -4 13 -8 0 -12 -4 -9 -9 3 -4 1 -8 -5 -8 -5 0 -8 18 -6 40 2
23 -1 38 -6 34 -5 -3 -7 -9 -4 -14 3 -5 1 -11 -5 -15 -5 -3 -10 1 -10 10 0 9
-4 14 -9 10 -5 -3 -13 0 -17 6 -4 7 -3 9 3 6 6 -4 19 0 29 8 18 14 18 14 -3
10 -20 -3 -23 0 -23 31 0 19 -5 34 -11 34 -6 0 -8 -8 -4 -19 3 -11 1 -22 -4
-26 -7 -3 -8 0 -5 9 4 10 1 16 -7 16 -7 0 -9 3 -6 7 4 3 2 12 -4 19 -8 9 -4
16 17 27 17 9 23 17 15 21 -6 4 -11 3 -11 -3 0 -5 -9 -9 -20 -8 -20 1 -20 2 2
20 13 10 18 16 11 13 -12 -6 -40 31 -35 47 1 4 -4 7 -11 7 -9 0 -8 3 2 9 7 5
10 14 7 20 -4 6 -12 9 -17 6 -5 -4 -9 -1 -9 4 0 16 15 13 30 -4 6 -8 8 -20 4
-27 -4 -8 -3 -10 2 -5 15 14 11 54 -4 53 -8 -1 -17 5 -19 12 -3 8 2 10 14 6
10 -3 7 2 -7 10 -33 20 -45 20 -29 -1 13 -16 12 -17 -3 -4 -20 15 -14 35 7 27
10 -3 13 4 13 25 -1 16 -4 29 -9 29 -4 0 -6 12 -4 26 1 16 -3 28 -13 31 -12 5
-11 8 6 14 17 6 20 15 17 45 -2 21 0 32 5 25 6 -11 9 -11 14 0 3 8 3 3 0 -11
-9 -33 -1 -24 25 30 12 25 15 37 8 27 -14 -17 -15 -16 -20 3 -3 12 -1 18 5 14
14 -9 2 53 -16 81 -13 20 -13 24 -1 29 9 3 12 0 9 -8 -3 -7 4 -23 14 -36 14
-18 19 -19 19 -7 0 9 -4 14 -8 12 -12 -8 -17 33 -5 45 8 9 7 11 -4 8 -10 -2
-14 4 -12 17 2 16 1 17 -7 5 -5 -8 -7 -18 -5 -22 3 -4 0 -8 -7 -8 -11 0 -10
13 6 55 l8 20 -16 -20 c-10 -12 -16 -15 -17 -7 0 7 -5 10 -12 6 -7 -5 -8 -3
-3 6 4 7 2 15 -5 20 -8 5 -7 9 5 13 9 4 14 3 11 -1 -2 -4 0 -14 6 -22 8 -13 9
-12 5 1 -3 9 0 22 6 29 9 10 9 11 0 6 -13 -7 -43 19 -43 37 0 7 7 3 15 -7 12
-16 15 -17 15 -4 0 23 -28 30 -39 10 -7 -13 -9 -11 -8 10 1 14 5 24 10 21 4
-2 7 1 7 6 0 6 -9 11 -21 11 -17 0 -19 4 -13 22 6 21 5 22 -11 8 -17 -13 -18
-13 -9 0 12 19 13 60 1 53 -5 -3 -6 4 -2 16 6 21 -1 26 -35 21 -12 -1 -13 1
-2 11 21 22 13 33 -10 13 -13 -10 -17 -12 -11 -4 12 16 12 44 0 56 -3 4 -5 -2
-2 -14 4 -20 -16 -25 -32 -7 -4 4 -2 5 5 1 7 -4 12 -1 12 8 0 16 -25 22 -33 9
-2 -5 -2 -2 0 6 2 8 -2 11 -12 7 -9 -3 -14 -2 -12 2 3 4 -2 14 -11 22 -14 13
-15 12 -9 -3 4 -10 3 -16 -2 -12 -5 3 -11 1 -13 -5 -2 -6 -8 -6 -18 0 -13 8
-12 10 3 10 9 0 17 7 17 15 0 8 -5 15 -11 15 -5 0 -7 -4 -4 -10 3 -6 -1 -7 -9
-4 -9 3 -13 11 -9 17 3 6 1 7 -5 3 -6 -4 -9 -13 -6 -20 3 -8 1 -17 -5 -21 -7
-4 -8 0 -4 11 4 12 3 15 -5 10 -8 -5 -10 -1 -5 11 6 16 5 17 -12 3 -11 -9 -16
-10 -11 -2 4 7 1 12 -9 12 -9 0 -13 -4 -10 -10 3 -5 1 -10 -5 -10 -7 0 -9 8
-5 19 3 11 0 23 -6 27 -7 4 -10 3 -6 -2 3 -5 -1 -18 -9 -29 -8 -10 -14 -14
-14 -8 0 7 4 14 10 18 5 3 6 13 3 22 -6 15 -7 14 -14 -3 -7 -17 -8 -18 -8 -1
-1 13 -6 17 -18 13 -10 -3 -25 -1 -33 5 -13 9 -12 10 3 5 9 -3 17 -1 17 4 0 6
-12 10 -26 10 -14 0 -23 4 -20 8 2 4 -4 8 -14 8 -10 0 -17 -3 -15 -6 2 -3 -7
-5 -20 -5 -13 0 -21 3 -18 8 2 4 -5 7 -16 7 -11 0 -22 8 -25 18 -3 10 -15 19
-26 20 -11 1 -31 3 -44 4 -14 1 -22 6 -19 11 3 5 -5 6 -18 3 -13 -3 -18 -3
-11 0 6 3 9 10 6 16 -4 6 2 5 15 -1 14 -8 21 -8 21 -1 0 5 -7 10 -15 10 -8 0
-15 5 -15 12 0 6 -7 3 -16 -8 -12 -15 -15 -16 -10 -2 3 12 -1 16 -15 15 -10
-1 -19 -6 -19 -12 0 -5 -4 -4 -9 4 -5 8 -7 20 -4 28 4 9 0 11 -13 6 -13 -5
-16 -3 -11 10 3 9 2 17 -3 17 -6 0 -10 -8 -10 -17 0 -15 -2 -14 -16 3 -8 10
-13 14 -10 7 4 -6 2 -15 -4 -18 -6 -4 -10 -3 -9 2 1 4 1 15 0 23 -1 13 -2 13
-11 0 -8 -13 -10 -12 -10 3 0 9 5 17 12 17 6 0 9 2 6 5 -11 12 -37 -7 -31 -23
7 -18 5 -17 -17 12 -8 11 -10 17 -3 13 6 -4 14 -3 17 2 8 12 -37 8 -46 -4 -5
-6 -8 -5 -9 3 -1 6 -2 16 -3 20 0 5 -9 16 -18 26 -10 10 -18 23 -18 29 0 9 -2
9 -8 0 -7 -11 -26 -16 -50 -14 -7 0 -11 5 -8 9 2 4 1 14 -4 22 -7 12 -11 12
-26 -1 -11 -9 -15 -9 -10 -1 4 7 2 12 -6 12 -10 0 -10 2 -1 8 8 5 9 13 3 22
-9 13 -10 13 -10 0 0 -9 -8 -3 -19 14 -18 26 -20 27 -30 10 -6 -11 -11 -14
-11 -6 0 7 -5 10 -12 6 -7 -4 -8 -3 -4 5 4 6 12 9 17 6 5 -4 9 -1 9 6 0 6 -8
9 -18 7 -10 -3 -27 1 -38 10 -11 9 -13 13 -4 10 8 -3 21 1 28 8 10 12 9 13
-10 11 -13 -1 -22 3 -21 9 2 10 -3 12 -46 16 -12 2 -18 9 -16 20 2 10 0 20 -6
23 -5 4 -9 1 -9 -5 0 -6 -5 -8 -11 -4 -6 3 -8 15 -6 26 3 11 3 17 0 14 -4 -3
-12 -1 -20 5 -11 9 -11 15 -1 28 10 13 8 12 -8 -1 -22 -19 -36 -23 -32 -10 3
10 -34 52 -42 47 -3 -2 -5 13 -4 33 2 33 1 35 -8 15 -6 -13 -16 -23 -22 -23
-6 0 -6 4 2 12 9 9 7 15 -6 25 -9 8 -11 11 -3 7 9 -5 12 -3 7 5 -4 6 -17 9
-29 6 -17 -4 -15 -2 6 10 30 18 38 31 8 15 -28 -15 -35 -12 -20 7 8 9 10 14 4
11 -5 -3 -19 -2 -30 3 -19 7 -19 8 3 8 13 1 21 5 17 10 -3 6 -14 8 -25 6 -11
-2 -19 -1 -19 3 1 4 1 21 0 37 -1 23 -3 27 -11 15 -6 -9 -10 -10 -10 -3 0 6 5
15 11 19 8 5 8 8 0 14 -7 4 -13 23 -14 43 -1 23 -6 32 -12 26 -16 -16 -38 -11
-31 8 4 9 1 20 -6 25 -10 7 -9 8 2 5 8 -2 14 -12 13 -22 -1 -12 2 -14 10 -6
14 14 -11 44 -33 38 -9 -2 -17 1 -18 7 -3 30 -9 46 -18 44 -5 -2 -8 -6 -7 -10
7 -19 -13 -6 -22 15 -6 12 -13 20 -16 17 -4 -3 -16 3 -26 12 -17 16 -22 16
-40 3 -20 -14 -33 -11 -33 8 0 5 7 7 15 4 8 -4 17 -1 21 5 4 6 3 8 -4 4 -5 -3
-12 -1 -14 6 -3 7 -9 8 -19 3 -20 -13 -40 -15 -33 -4 3 5 10 7 15 4 5 -4 6 2
2 11 -4 11 -8 13 -11 6 -6 -20 -35 -14 -30 6 3 12 0 19 -9 19 -9 0 -11 -7 -7
-21 4 -17 3 -18 -5 -6 -9 12 -13 12 -19 2 -7 -10 -11 -10 -21 2 -7 8 -21 13
-32 11 -11 -2 -17 0 -14 6 4 5 1 9 -4 9 -6 0 -10 5 -8 11 1 7 -15 13 -43 14
-59 3 -60 3 -60 15 0 5 6 8 13 6 6 -1 9 -1 4 1 -4 3 -4 10 0 16 3 7 -4 3 -17
-8 -19 -17 -22 -17 -17 -3 8 21 -18 45 -26 24 -4 -9 -1 -14 6 -12 7 1 9 1 4
-1 -4 -3 -5 -8 -3 -12 3 -4 -1 -8 -9 -8 -8 0 -11 5 -8 10 4 7 -1 8 -13 3 -15
-6 -17 -5 -6 5 6 7 12 18 12 23 0 6 -4 5 -8 -2 -12 -18 -49 -23 -49 -7 0 8 4
12 9 9 4 -3 8 -1 8 4 0 6 -7 13 -16 16 -10 4 -13 2 -8 -6 5 -8 2 -9 -9 -5 -9
3 -23 -1 -32 -9 -8 -9 -16 -11 -16 -5 -3 26 -4 30 -11 37 -5 4 -8 0 -8 -10 0
-9 -5 -14 -10 -11 -6 4 -7 12 -3 18 4 7 -1 6 -11 -2 -15 -12 -19 -12 -26 -1
-4 7 -6 20 -3 29 4 14 3 14 -5 1 -6 -8 -9 -17 -6 -21 2 -4 -3 -10 -12 -13 -8
-3 -13 -2 -10 3 6 9 -63 9 -79 0 -5 -4 -17 -5 -25 -3 -8 2 -23 5 -32 7 -10 2
-20 6 -23 10 -3 4 -2 5 2 2 3 -3 13 1 21 8 13 9 14 9 8 0 -4 -7 -2 -13 3 -13
6 0 11 6 11 13 0 8 4 7 10 -3 5 -8 10 -10 10 -5 0 6 -5 17 -10 25 -5 8 -10 10
-10 5 0 -6 -12 -12 -27 -13 -15 -1 -29 -5 -32 -10 -7 -8 -31 -14 -31 -7 0 2
12 11 27 19 21 12 23 15 8 13 -11 -1 -26 -7 -34 -11 -9 -6 -12 -5 -8 1 4 6 -1
14 -11 19 -27 12 -47 10 -47 -3 0 -13 -9 -15 -32 -6 -7 3 -10 10 -7 15 4 6 9
6 14 -2 5 -8 9 -8 13 3 7 20 -27 15 -48 -7 -9 -8 -22 -13 -30 -10 -22 9 -18
23 5 19 13 -3 20 2 20 12 0 12 -3 13 -14 4 -10 -9 -16 -9 -21 -1 -5 7 -11 8
-19 1 -13 -11 -34 -10 -53 2 -6 4 -14 3 -18 -3 -8 -13 -55 -13 -55 0 0 5 -7 7
-15 4 -8 -4 -12 -11 -8 -18 3 -6 0 -5 -8 2 -12 11 -12 14 1 23 12 9 11 10 -4
5 -11 -4 -23 -1 -28 6 -6 11 -8 10 -8 0 0 -7 -5 -10 -10 -7 -6 4 -7 11 -4 17
4 6 0 6 -13 -1 -11 -6 -23 -8 -27 -6 -3 3 -4 2 -1 -2 5 -7 27 -13 53 -15 6 -1
12 -5 12 -9 0 -4 -9 -7 -20 -6 -11 1 -20 4 -20 7 0 7 -16 10 -45 10 -79 0 -85
1 -85 11 0 6 4 8 9 4 5 -3 12 -1 15 3 3 5 -5 8 -17 7 -36 -2 -67 -15 -67 -28
0 -7 -5 -4 -11 6 -10 18 -11 18 -25 0 -14 -17 -14 -16 -4 5 15 30 6 41 -10 13
-11 -22 -30 -28 -30 -10 0 5 5 7 12 3 6 -4 8 -3 5 3 -8 12 -46 10 -55 -3 -11
-17 -39 -23 -39 -9 0 7 6 11 14 8 7 -3 13 -1 13 4 0 5 -15 9 -34 9 -24 0 -32
-4 -28 -14 4 -11 6 -11 13 0 6 9 9 9 9 1 0 -6 -4 -14 -9 -18 -13 -7 -43 24
-35 37 5 7 2 8 -5 4 -7 -5 -10 -14 -7 -22 3 -7 0 -16 -6 -20 -6 -4 -8 -3 -4 4
3 6 2 13 -4 17 -6 4 -8 11 -4 16 3 5 0 8 -8 7 -7 -2 -18 -14 -25 -28 -9 -18
-12 -20 -13 -7 0 9 -3 17 -7 18 -28 4 -90 4 -100 1 -18 -6 -16 -19 2 -19 8 0
12 3 10 7 -2 4 2 7 9 7 8 0 12 -5 10 -12 -3 -6 -25 -11 -49 -11 -38 0 -43 2
-32 15 7 9 1 7 -15 -4 -19 -15 -23 -23 -16 -32 6 -7 6 -13 2 -13 -5 0 -15 9
-22 20 -7 11 -18 20 -25 19 -9 0 -9 -2 1 -6 15 -6 16 -33 1 -33 -5 0 -8 4 -5
8 2 4 -4 13 -14 20 -13 8 -21 8 -26 1 -3 -6 -12 -8 -19 -5 -8 3 -17 -3 -20
-13 -8 -27 -34 -22 -29 6 5 26 -3 29 -30 8 -21 -16 -40 -10 -29 8 4 7 0 6 -10
-2 -9 -7 -17 -19 -17 -25 0 -6 4 -5 9 3 6 9 11 10 15 2 5 -8 13 -8 27 -1 13 7
19 7 19 0 0 -9 -20 -14 -47 -11 -6 1 -14 -3 -17 -7 -3 -5 -20 -8 -37 -6 -18 2
-39 -2 -47 -9 -13 -10 -14 -9 -4 10 20 37 13 39 -13 3 -14 -19 -25 -30 -25
-24 0 13 -49 34 -56 23 -3 -5 -9 -7 -14 -4 -5 3 -11 1 -14 -3 -6 -10 -36 -9
-55 2 -9 6 -9 2 2 -15 16 -24 16 -24 -19 -25 -22 0 -30 2 -22 7 11 7 11 9 0 9
-7 0 -10 5 -6 12 5 7 3 8 -5 4 -7 -5 -10 -10 -7 -13 3 -3 1 -14 -5 -25 -7 -13
-16 -17 -31 -12 -13 4 -18 2 -14 -4 6 -11 -4 -10 -52 4 -18 5 -21 3 -16 -9 4
-12 0 -15 -15 -14 -12 1 -21 5 -21 10 0 5 7 7 14 4 10 -4 13 -1 9 8 -3 8 -9
13 -13 10 -5 -3 -10 -2 -13 2 -2 5 -2 2 0 -6 2 -8 -2 -11 -10 -8 -8 3 -20 1
-28 -3 -8 -5 -20 -4 -29 3 -12 9 -13 9 -3 -3 14 -16 55 -22 46 -7 -3 6 -1 7 5
3 15 -9 15 -11 -5 -27 -9 -8 -14 -9 -10 -2 5 8 -3 11 -25 9 -18 -2 -36 2 -40
8 -5 7 -8 7 -8 -2 0 -7 -5 -10 -12 -6 -7 4 -8 3 -4 -5 4 -7 15 -11 24 -10 30
3 42 -1 42 -12 0 -8 -4 -8 -13 -1 -10 8 -21 7 -43 -4 -36 -19 -37 -19 -45 3
-7 16 -8 16 -8 1 -1 -11 -6 -15 -16 -12 -8 4 -15 2 -15 -4 0 -6 5 -12 12 -14
7 -3 5 -7 -6 -11 -10 -4 -15 -3 -11 3 3 6 1 10 -5 10 -6 0 -9 4 -6 8 3 5 -1 9
-9 9 -8 0 -12 -4 -10 -8 3 -3 -4 -9 -15 -12 -10 -3 -21 -2 -23 2 -2 3 -2 0 -1
-6 2 -7 -2 -13 -9 -13 -7 0 -19 6 -26 13 -8 6 -6 0 4 -15 20 -32 15 -36 -11
-10 -17 16 -17 16 -12 -5 4 -15 2 -20 -8 -16 -7 2 -10 12 -7 21 4 14 3 14 -5
3 -6 -8 -22 -15 -36 -15 -14 -1 -25 -4 -24 -6 1 -3 -5 -16 -12 -30 -8 -14 -14
-27 -13 -30 1 -3 -13 -5 -30 -5 -20 1 -39 -7 -50 -20 -10 -11 -15 -13 -11 -5
12 22 14 41 3 34 -5 -3 -7 -10 -4 -15 4 -5 1 -9 -4 -9 -6 0 -11 -7 -11 -16 0
-9 -5 -12 -12 -8 -7 4 -8 3 -4 -4 4 -6 13 -9 21 -5 8 3 15 1 15 -5 0 -6 -11
-9 -25 -7 -31 3 -61 -31 -44 -51 7 -8 6 -14 -3 -17 -9 -4 -9 -6 -1 -6 16 -1
26 16 14 24 -6 3 -8 12 -5 20 4 8 11 12 17 8 6 -4 7 -1 2 8 -5 8 -4 10 0 6 12
-11 15 -38 4 -31 -6 3 -8 -5 -5 -20 3 -15 1 -24 -5 -21 -5 4 -9 1 -9 -5 0 -6
-4 -8 -10 -5 -9 5 -16 -32 -11 -58 1 -5 -3 -6 -9 -2 -6 3 -7 11 -4 17 4 7 2 8
-5 4 -6 -4 -9 -12 -5 -17 3 -6 -3 -13 -15 -16 -11 -3 -18 -9 -15 -14 8 -14 14
-52 6 -45 -4 4 -7 13 -7 19 0 5 -6 11 -13 13 -7 1 -8 0 -3 -2 6 -3 7 -12 4
-20 -3 -7 -9 -11 -14 -8 -5 3 -9 2 -8 -3 1 -4 1 -14 0 -22 -1 -11 -4 -11 -18
0 -17 13 -17 12 -3 -5 13 -16 12 -20 -3 -30 -11 -9 -13 -16 -6 -23 8 -8 7 -13
-2 -18 -8 -5 -10 -4 -5 3 9 15 1 15 -26 1 -15 -8 -19 -8 -14 0 9 14 -7 14 -20
1 -7 -7 -11 -6 -11 4 0 8 4 13 8 10 4 -2 10 0 14 6 3 5 -1 10 -9 10 -9 0 -16
5 -16 11 0 8 -4 8 -14 0 -11 -9 -13 -6 -10 16 3 27 2 27 -13 8 -11 -14 -14
-15 -10 -4 6 17 -10 39 -28 39 -5 0 -4 -4 4 -9 9 -6 4 -8 -17 -8 -21 1 -28 6
-24 16 3 8 1 12 -5 8 -6 -4 -8 4 -5 21 4 26 4 26 -11 7 -16 -20 -16 -20 -12 3
3 15 0 22 -8 19 -7 -3 -11 -10 -9 -16 1 -7 -2 -10 -8 -6 -14 9 10 44 27 38 7
-3 13 0 13 6 0 6 -6 10 -12 8 -8 -1 -14 10 -16 25 -2 20 1 26 10 23 9 -4 13 4
13 24 1 20 -3 27 -13 23 -10 -3 -11 -7 -2 -12 9 -5 9 -9 1 -14 -6 -4 -11 -2
-11 4 0 6 -4 9 -8 6 -4 -2 -8 4 -8 14 0 10 4 17 7 14 4 -2 11 1 15 7 4 7 3 9
-4 5 -6 -3 -14 -1 -18 6 -5 8 -10 6 -15 -8 -7 -17 -8 -17 -8 5 -1 21 -3 22
-18 10 -11 -10 -14 -10 -9 -1 4 7 2 12 -4 12 -7 0 -9 9 -6 23 l6 22 -11 -22
c-13 -25 -24 -29 -35 -11 -4 7 -3 8 4 4 7 -4 12 -2 12 3 0 6 -3 11 -7 11 -5 0
-9 11 -9 25 -1 14 2 25 8 25 5 0 6 6 1 13 -13 20 -12 68 1 60 6 -4 5 1 -3 10
-14 18 -26 23 -16 8 3 -5 0 -13 -6 -17 -8 -4 -7 -9 2 -16 11 -8 11 -11 1 -15
-10 -4 -10 -8 -1 -19 9 -11 9 -17 0 -28 -9 -11 -9 -15 1 -19 7 -2 9 -8 5 -13
-4 -5 -12 -2 -16 5 -7 11 -10 11 -14 0 -3 -9 -6 -10 -6 -2 -1 6 4 15 9 18 14
9 12 45 -2 45 -9 0 -9 3 1 9 13 8 13 12 0 27 -8 11 -9 15 -2 10 9 -5 12 0 11
18 -1 13 -6 22 -10 20 -5 -3 -5 -11 -2 -17 4 -7 4 -9 -1 -5 -4 4 -15 2 -24 -5
-14 -10 -14 -10 -3 5 12 15 10 17 -17 16 -17 -1 -34 2 -38 5 -3 4 0 7 9 7 8 0
15 7 15 15 0 11 -4 12 -14 4 -10 -9 -13 -8 -13 1 0 7 -7 10 -15 7 -8 -4 -17
-1 -21 5 -4 7 -3 8 4 4 7 -4 12 -1 12 8 0 9 4 16 8 16 14 0 9 99 -6 105 -7 2
-11 1 -8 -3 3 -5 -1 -9 -9 -9 -11 0 -12 4 -4 14 10 11 6 16 -11 15 -3 0 -7 10
-8 24 -1 13 3 24 8 24 5 0 7 -6 4 -14 -7 -19 32 -41 42 -24 4 6 3 8 -2 5 -6
-3 -16 -1 -24 4 -13 8 -13 10 -1 18 11 7 9 10 -8 16 -11 3 -25 4 -30 0 -5 -3
-13 0 -17 6 -4 7 -3 9 4 5 6 -3 13 -2 17 4 3 5 -3 11 -14 11 -34 2 -39 4 -45
12 -3 4 -3 5 1 2 3 -3 13 1 21 8 13 9 14 9 8 0 -10 -18 2 -16 20 2 13 12 10
14 -20 11 -23 -1 -43 4 -58 17 l-23 19 28 -16 c15 -9 27 -13 27 -8 0 15 -53
35 -92 36 -35 1 -43 -4 -39 -27 1 -4 -8 -3 -19 3 -11 6 -20 13 -20 16 0 3 4 3
9 -1 11 -6 26 13 17 22 -3 4 -6 1 -6 -6z m90 -46 c0 -5 -5 -3 -10 5 -5 8 -10
20 -10 25 0 6 5 3 10 -5 5 -8 10 -19 10 -25z m-35 5 c3 -6 -1 -7 -9 -4 -18 7
-21 14 -7 14 6 0 13 -4 16 -10z m2256 -153 c-10 -9 -11 -8 -5 6 3 10 9 15 12
12 3 -3 0 -11 -7 -18z m36 4 c0 -11 -5 -18 -9 -15 -4 3 -5 11 -1 19 7 21 12
19 10 -4z m63 4 c0 -8 -4 -15 -8 -15 -5 0 -9 7 -9 15 0 8 4 15 9 15 4 0 8 -7
8 -15z m155 6 c3 -5 2 -12 -3 -15 -5 -3 -9 1 -9 9 0 17 3 19 12 6z m145 -1 c0
-5 -5 -10 -11 -10 -5 0 -7 5 -4 10 3 6 8 10 11 10 2 0 4 -4 4 -10z m-2456 -52
c-2 -50 -3 -53 -16 -40 -8 8 -8 15 2 27 12 14 7 19 -15 16 -5 -1 -1 6 9 14 11
8 20 15 21 15 0 0 0 -15 -1 -32z m1857 9 c-13 -13 -26 -3 -16 12 3 6 11 8 17
5 6 -4 6 -10 -1 -17z m918 5 c7 -14 6 -19 -4 -19 -7 0 -11 7 -7 15 4 11 1 13
-8 7 -9 -5 -11 -4 -6 3 10 16 14 15 25 -6z m29 -17 c-3 -3 -9 2 -12 12 -6 14
-5 15 5 6 7 -7 10 -15 7 -18z m-63 5 c3 -6 -1 -7 -9 -4 -18 7 -21 14 -7 14 6
0 13 -4 16 -10z m238 -6 c-3 -15 -20 -15 -26 0 -4 9 0 13 11 12 9 -2 16 -7 15
-12z m-1458 -33 c-6 -19 -27 -31 -24 -13 3 19 -2 23 -16 12 -13 -11 -18 -11
-28 0 -10 10 -9 12 5 7 10 -3 20 -2 23 4 4 5 10 7 15 4 5 -3 12 0 15 6 11 16
18 3 10 -20z m1841 -43 c4 -7 3 -8 -4 -4 -7 4 -12 2 -12 -5 0 -7 -3 -10 -6 -6
-6 5 3 27 11 27 2 0 7 -5 11 -12z m-3989 -13 c0 -8 -4 -12 -9 -9 -5 3 -6 10
-3 15 9 13 12 11 12 -6z m-17 -60 c0 -8 -4 -15 -10 -15 -5 0 -7 7 -4 15 4 8 8
15 10 15 2 0 4 -7 4 -15z m4204 7 c3 -5 -1 -9 -9 -9 -8 0 -12 4 -9 9 3 4 7 8
9 8 2 0 6 -4 9 -8z m-2564 -26 c0 -2 -9 -6 -20 -9 -11 -3 -18 -1 -14 4 5 9 34
13 34 5z m-122 -54 c4 -14 -7 -15 -28 -3 -18 12 -36 1 -19 -11 12 -8 12 -9 0
-6 -8 2 -15 11 -16 19 -3 19 57 19 63 1z m2977 -31 c-3 -3 -10 1 -15 9 -8 13
-10 13 -10 1 0 -8 -3 -12 -6 -8 -3 3 -3 11 1 17 5 8 11 8 21 -1 8 -6 12 -14 9
-18z m35 -9 c0 -4 -10 -9 -22 -9 -18 -2 -20 0 -8 7 18 12 30 13 30 2z m117
-126 c0 -8 -6 -12 -15 -9 -11 5 -11 7 0 14 7 5 13 9 14 9 0 0 1 -6 1 -14z m6
-40 c4 -10 1 -13 -9 -9 -7 3 -14 9 -14 14 0 14 17 10 23 -5z m-3760 -21 c4 -8
3 -16 -1 -19 -4 -3 -9 4 -9 15 -2 23 3 25 10 4z m352 -55 c-3 -5 -12 -10 -18
-10 -7 0 -6 4 3 10 19 12 23 12 15 0z m-45 -60 c0 -5 -5 -10 -11 -10 -5 0 -7
5 -4 10 3 6 8 10 11 10 2 0 4 -4 4 -10z m-895 -20 c3 -5 2 -10 -4 -10 -5 0
-13 5 -16 10 -3 6 -2 10 4 10 5 0 13 -4 16 -10z m4579 -159 c3 -5 0 -11 -7
-14 -8 -3 -14 1 -14 9 0 16 13 19 21 5z m106 -96 c0 -2 -5 -7 -12 -11 -7 -4
-8 -3 -4 4 7 11 -6 17 -27 13 -5 -1 -6 3 -2 9 6 9 45 -3 45 -15z m-4530 -7 c0
-6 -6 -5 -15 2 -8 7 -15 14 -15 16 0 2 7 1 15 -2 8 -4 15 -11 15 -16z m0 -28
c-8 -5 -11 -10 -6 -10 5 0 3 -6 -3 -13 -6 -8 -7 -18 -3 -22 4 -5 2 -5 -5 -2
-19 12 -3 57 20 57 7 0 6 -4 -3 -10z m4628 -55 c-3 -3 -9 2 -12 12 -6 14 -5
15 5 6 7 -7 10 -15 7 -18z m135 -82 c-4 -11 -3 -14 5 -9 7 4 12 2 12 -3 0 -6
-4 -11 -9 -11 -14 0 -23 18 -16 30 10 16 15 12 8 -7z m-4822 -147 c-7 -8 -8
-16 -4 -18 4 -3 2 -3 -6 -1 -9 2 -11 -2 -7 -14 6 -14 5 -15 -5 -6 -10 10 -9
17 6 33 20 22 34 28 16 6z m5204 -66 c3 -6 -1 -7 -9 -4 -18 7 -21 14 -7 14 6
0 13 -4 16 -10z m-5398 -31 c-9 -6 -15 -16 -11 -22 3 -7 -2 -3 -10 7 -9 11
-16 15 -16 9 0 -6 -7 -13 -15 -17 -9 -3 -15 0 -15 10 0 8 4 13 9 9 5 -3 12 -1
16 4 3 6 12 8 19 5 8 -3 17 0 21 6 4 6 10 8 13 5 4 -4 -1 -11 -11 -16z m5523
-23 c14 -18 14 -18 -7 -6 -12 8 -19 18 -16 23 3 4 6 7 7 5 1 -2 8 -12 16 -22z
m-5736 -64 c3 -5 -1 -9 -9 -9 -8 0 -12 4 -9 9 3 4 7 8 9 8 2 0 6 -4 9 -8z
m6120 -133 c-3 -5 -10 -7 -15 -3 -5 3 -7 10 -3 15 3 5 10 7 15 3 5 -3 7 -10 3
-15z m1 -28 c3 -5 2 -12 -3 -15 -5 -3 -9 1 -9 9 0 17 3 19 12 6z m-6325 -81
c13 -8 13 -10 -2 -10 -9 0 -20 5 -23 10 -8 13 5 13 25 0z m-40 -130 c-7 -4
-10 -12 -7 -17 3 -5 0 -10 -7 -10 -11 0 -12 5 -4 23 6 13 15 21 21 17 5 -3 4
-9 -3 -13z m6490 -130 c0 -5 -2 -10 -4 -10 -3 0 -8 5 -11 10 -3 6 -1 10 4 10
6 0 11 -4 11 -10z m10 -80 c0 -5 -7 -7 -15 -4 -8 4 -15 8 -15 10 0 2 7 4 15 4
8 0 15 -4 15 -10z m-46 -68 c3 -5 -1 -9 -9 -9 -8 0 -12 4 -9 9 3 4 7 8 9 8 2
0 6 -4 9 -8z m-8 -84 c1 -5 2 -9 4 -10 8 -12 5 -35 -5 -35 -7 0 -12 8 -10 19
2 10 -2 18 -8 18 -8 0 -8 3 2 9 9 6 10 11 2 15 -6 4 -11 13 -11 19 1 11 23
-19 26 -35z m-6590 -193 c1 -8 -2 -13 -7 -9 -5 3 -9 12 -9 21 0 19 13 9 16
-12z m-4 -62 c-6 -2 -10 -9 -6 -14 3 -5 0 -9 -5 -9 -12 0 -14 13 -4 23 3 4 11
7 17 6 6 0 5 -3 -2 -6z m6 -85 c-2 -7 -10 -19 -18 -26 -13 -12 -12 -13 5 -7
15 5 17 3 8 -6 -21 -21 -34 0 -17 27 18 26 25 31 22 12z m-7 -68 c3 -20 4 -25
13 -40 5 -8 -3 -4 -17 9 -15 13 -24 28 -21 32 7 12 24 11 25 -1z m6764 -310
c-3 -5 -12 -10 -18 -10 -7 0 -6 4 3 10 19 12 23 12 15 0z m15 -110 c0 -5 -8
-10 -17 -10 -15 0 -16 2 -3 10 19 12 20 12 20 0z m-6710 -44 c0 -2 -7 -7 -16
-10 -8 -3 -12 -2 -9 4 6 10 25 14 25 6z m3 -23 c-7 -2 -13 -11 -13 -19 0 -8
-5 -14 -10 -14 -7 0 -7 6 0 20 6 11 16 20 23 19 9 0 9 -2 0 -6z m6711 -62 c4
-5 -3 -7 -14 -4 -23 6 -26 13 -6 13 8 0 17 -4 20 -9z m-13 -59 c-7 -2 -18 1
-23 6 -8 8 -4 9 13 5 13 -4 18 -8 10 -11z m7 -328 c1 -1 -5 -7 -15 -15 -12
-10 -15 -10 -9 -1 4 7 2 20 -6 30 -12 16 -11 16 7 2 11 -8 21 -15 23 -16z
m-6718 -24 c0 -5 -5 -10 -11 -10 -5 0 -7 5 -4 10 3 6 8 10 11 10 2 0 4 -4 4
-10z m6688 -45 c-3 -3 -9 2 -12 12 -6 14 -5 15 5 6 7 -7 10 -15 7 -18z m-6748
-55 c0 -5 -4 -10 -10 -10 -5 0 -10 5 -10 10 0 6 5 10 10 10 6 0 10 -4 10 -10z
m4 -155 c-7 -16 -24 -21 -24 -6 0 8 7 13 27 20 1 1 0 -6 -3 -14z m6632 -83
c-17 -16 -18 -16 -5 5 7 12 15 20 18 17 3 -2 -3 -12 -13 -22z m11 -38 c-3 -3
-12 -4 -19 -1 -8 3 -5 6 6 6 11 1 17 -2 13 -5z m-6587 -18 c0 -2 -6 -9 -14
-15 -11 -9 -16 -9 -22 0 -4 7 -3 9 4 5 6 -3 13 -2 17 4 6 10 15 14 15 6z
m6580 -6 c0 -5 -2 -10 -4 -10 -3 0 -8 5 -11 10 -3 6 -1 10 4 10 6 0 11 -4 11
-10z m-6580 -41 c0 -4 -6 -10 -12 -12 -10 -4 -9 -8 2 -17 13 -10 13 -11 0 -7
-19 5 -22 44 -4 44 8 0 14 -4 14 -8z m6635 -89 c-3 -5 -1 -18 5 -29 8 -16 7
-22 -8 -30 -14 -7 -19 -6 -19 4 0 8 7 11 16 8 13 -5 14 -3 4 8 -16 16 -17 49
-2 49 5 0 7 -4 4 -10z m1 -95 c0 -29 -8 -32 -26 -10 -11 13 -10 14 4 9 9 -4
16 -3 15 2 -2 12 0 24 4 24 2 0 3 -11 3 -25z m-6540 -87 c4 -7 3 -8 -4 -4 -15
9 -12 -35 3 -47 6 -5 4 -7 -5 -4 -8 2 -14 11 -12 21 2 9 -2 16 -9 16 -8 0 -8
4 1 15 15 18 17 18 26 3z m24 -67 c0 -5 -7 -12 -16 -15 -14 -5 -15 -4 -4 9 14
17 20 19 20 6z m70 -201 c0 -4 -6 -10 -13 -13 -7 -3 -13 3 -13 13 0 10 6 16
13 13 7 -3 13 -9 13 -13z m6347 -39 c1 -13 -3 -18 -12 -15 -8 3 -11 12 -8 20
7 20 18 17 20 -5z m-6317 -75 c0 -2 -7 -7 -16 -10 -8 -3 -12 -2 -9 4 6 10 25
14 25 6z m6150 -206 c-6 -11 -13 -20 -16 -20 -2 0 0 9 6 20 6 11 13 20 16 20
2 0 0 -9 -6 -20z m-5944 -38 c1 -7 0 -8 -3 -2 -2 5 -9 8 -14 4 -5 -3 -9 0 -9
6 0 15 23 7 26 -8z m5842 -7 c-3 -3 -9 2 -12 12 -6 14 -5 15 5 6 7 -7 10 -15
7 -18z m-5750 -28 c17 -1 29 -4 26 -8 -5 -8 -46 -5 -61 4 -7 5 -13 14 -13 20
0 8 3 7 9 -2 5 -7 22 -14 39 -14z m5639 -10 c0 -8 -6 -14 -14 -14 -9 0 -10 4
-2 14 6 7 12 13 14 13 1 0 2 -6 2 -13z m-197 -77 c0 -5 -5 -10 -11 -10 -5 0
-7 5 -4 10 3 6 8 10 11 10 2 0 4 -4 4 -10z m30 -4 c0 -3 -4 -8 -10 -11 -5 -3
-10 -1 -10 4 0 6 5 11 10 11 6 0 10 -2 10 -4z m-49 -23 c13 -16 12 -17 -3 -4
-10 7 -18 15 -18 17 0 8 8 3 21 -13z m-71 -27 c0 -2 -9 -6 -20 -9 -11 -3 -20
-1 -20 4 0 5 9 9 20 9 11 0 20 -2 20 -4z m-4835 -94 c-3 -3 -11 0 -18 7 -9 10
-8 11 6 5 10 -3 15 -9 12 -12z m141 -94 c-2 -14 -8 -18 -28 -18 -6 0 -3 7 8
15 23 18 23 18 20 3z m4319 -31 c6 -5 4 -7 -5 -5 -8 3 -25 -8 -38 -24 -13 -15
-29 -28 -35 -28 -9 0 -9 2 -1 8 6 4 10 18 9 31 -2 22 -1 22 11 6 12 -17 14
-16 25 9 7 14 15 23 18 19 3 -4 11 -12 16 -16z m-95 -52 c0 -8 -4 -15 -10 -15
-5 0 -7 7 -4 15 4 8 8 15 10 15 2 0 4 -7 4 -15z m-4006 -106 c-3 -5 -10 -7
-15 -3 -5 3 -7 10 -3 15 3 5 10 7 15 3 5 -3 7 -10 3 -15z m3631 -337 c16 -11
17 -39 1 -39 -8 0 -12 6 -9 15 3 8 0 18 -8 23 -8 5 -9 9 -4 9 6 0 15 -4 20 -8z
m-565 -332 c0 -5 -5 -10 -11 -10 -5 0 -7 5 -4 10 3 6 8 10 11 10 2 0 4 -4 4
-10z m-26 -16 c3 -8 2 -12 -4 -9 -6 3 -10 10 -10 16 0 14 7 11 14 -7z m-164
-44 c0 -5 -7 -7 -15 -4 -8 4 -15 8 -15 10 0 2 7 4 15 4 8 0 15 -4 15 -10z
m-1648 -24 c7 4 8 2 4 -5 -9 -13 -26 -5 -25 12 0 9 2 8 6 -1 2 -6 10 -9 15 -6z
m1474 -15 c0 -11 -4 -17 -8 -15 -4 3 -8 12 -8 20 0 8 4 14 8 14 4 0 8 -9 8
-19z m-1193 -14 c3 -8 -1 -14 -8 -14 -7 0 -11 6 -8 14 6 16 10 16 16 0z m202
-22 c6 0 15 4 22 8 7 4 10 1 9 -10 -4 -24 -62 -26 -62 -1 0 10 5 14 11 9 5 -4
15 -7 20 -6z m508 7 c4 9 6 8 6 -3 1 -13 -17 -29 -33 -29 -1 0 -2 9 -2 19 0
14 4 17 12 10 8 -7 14 -6 17 3z m-93 -15 c0 -5 -6 -7 -14 -4 -7 3 -19 0 -25
-6 -9 -9 -11 -8 -6 5 7 17 45 21 45 5z"/>
<path d="M662 6580 c2 -10 -3 -14 -16 -12 -10 2 -15 -1 -12 -7 9 -14 44 -9 42
6 -1 7 -6 16 -10 20 -4 4 -6 1 -4 -7z"/>
<path d="M606 6544 c-8 -22 -4 -25 11 -9 7 8 9 16 4 19 -5 3 -12 -1 -15 -10z"/>
<path d="M3486 6468 c3 -4 9 -8 15 -8 5 0 9 4 9 8 0 5 -7 9 -15 9 -8 0 -12 -4
-9 -9z"/>
<path d="M3605 6461 c-6 -11 9 -23 19 -14 9 9 7 23 -3 23 -6 0 -12 -4 -16 -9z"/>
<path d="M2875 6420 c-3 -5 -1 -10 4 -10 6 0 11 5 11 10 0 6 -2 10 -4 10 -3 0
-8 -4 -11 -10z"/>
<path d="M2743 6407 c0 -7 9 -13 19 -13 10 0 18 1 18 3 0 1 -8 7 -18 12 -13 7
-19 6 -19 -2z"/>
<path d="M4275 6380 c-4 -6 -12 -7 -18 -4 -7 4 -8 3 -4 -1 13 -15 34 -14 34 1
0 17 -4 18 -12 4z"/>
<path d="M4353 6375 c-3 -9 -3 -18 -1 -21 3 -3 8 4 11 16 6 23 -1 27 -10 5z"/>
<path d="M2490 6376 c0 -2 8 -10 18 -17 15 -13 16 -12 3 4 -13 16 -21 21 -21
13z"/>
<path d="M4216 6364 c-5 -14 -4 -15 9 -4 17 14 19 20 6 20 -5 0 -12 -7 -15
-16z"/>
<path d="M2345 6350 c-4 -6 -3 -9 2 -8 4 1 18 -3 29 -10 21 -11 34 -7 34 11 0
5 -7 6 -16 3 -9 -4 -22 -2 -29 4 -9 8 -15 8 -20 0z"/>
<path d="M2426 6338 c3 -4 9 -8 15 -8 5 0 9 4 9 8 0 5 -7 9 -15 9 -8 0 -12 -4
-9 -9z"/>
<path d="M4496 6323 c-6 -14 -5 -15 5 -6 7 7 10 15 7 18 -3 3 -9 -2 -12 -12z"/>
<path d="M1146 6283 c-6 -14 -5 -15 5 -6 7 7 10 15 7 18 -3 3 -9 -2 -12 -12z"/>
<path d="M1175 6290 c-3 -5 -1 -10 4 -10 6 0 11 5 11 10 0 6 -2 10 -4 10 -3 0
-8 -4 -11 -10z"/>
<path d="M4630 6290 c0 -5 5 -10 11 -10 5 0 7 5 4 10 -3 6 -8 10 -11 10 -2 0
-4 -4 -4 -10z"/>
<path d="M2167 6275 c3 -8 9 -12 14 -9 12 7 11 11 -5 17 -10 4 -13 1 -9 -8z"/>
<path d="M4712 6248 c3 -7 9 -13 14 -13 5 0 15 -4 22 -9 20 -12 40 10 23 27
-10 10 -11 8 -5 -7 7 -17 6 -17 -26 -1 -24 12 -31 13 -28 3z"/>
<path d="M434 6182 c0 -19 19 -24 31 -9 3 4 2 5 -2 2 -3 -3 -11 2 -17 11 -10
13 -12 13 -12 -4z"/>
<path d="M1843 6153 c1 -17 5 -20 19 -12 10 5 18 15 18 22 0 8 -4 6 -10 -3 -9
-13 -11 -13 -20 0 -7 12 -9 10 -7 -7z"/>
<path d="M1815 6150 c-3 -5 -1 -10 4 -10 6 0 11 5 11 10 0 6 -2 10 -4 10 -3 0
-8 -4 -11 -10z"/>
<path d="M610 5990 c6 -11 15 -18 21 -15 13 9 11 13 -12 25 -19 11 -20 10 -9
-10z"/>
<path d="M5141 5908 c-1 -21 15 -32 25 -17 4 7 3 9 -4 5 -6 -3 -13 2 -15 11
-4 16 -5 16 -6 1z"/>
<path d="M661 5861 c-8 -5 -9 -11 -3 -15 5 -3 12 1 16 9 6 17 6 18 -13 6z"/>
<path d="M1410 5855 c0 -8 2 -15 4 -15 2 0 6 7 10 15 3 8 1 15 -4 15 -6 0 -10
-7 -10 -15z"/>
<path d="M1555 5770 c3 -5 8 -10 11 -10 2 0 4 5 4 10 0 6 -5 10 -11 10 -5 0
-7 -4 -4 -10z"/>
<path d="M5285 5710 c3 -5 11 -10 16 -10 6 0 7 5 4 10 -3 6 -11 10 -16 10 -6
0 -7 -4 -4 -10z"/>
<path d="M770 5670 c0 -5 5 -10 11 -10 5 0 7 5 4 10 -3 6 -8 10 -11 10 -2 0
-4 -4 -4 -10z"/>
<path d="M5395 5610 c-3 -5 -1 -10 4 -10 6 0 11 5 11 10 0 6 -2 10 -4 10 -3 0
-8 -4 -11 -10z"/>
<path d="M5585 5450 c-3 -6 1 -7 9 -4 18 7 21 14 7 14 -6 0 -13 -4 -16 -10z"/>
<path d="M870 5446 c0 -2 7 -7 16 -10 8 -3 12 -2 9 4 -6 10 -25 14 -25 6z"/>
<path d="M5645 5430 c-4 -6 -11 -8 -16 -5 -5 3 -6 -1 -3 -9 8 -21 11 -20 24 4
11 20 6 29 -5 10z"/>
<path d="M5730 5365 c-11 -13 -10 -14 4 -9 9 3 16 10 16 15 0 13 -6 11 -20 -6z"/>
<path d="M5896 5271 c-4 -5 3 -7 14 -4 23 6 26 13 6 13 -8 0 -17 -4 -20 -9z"/>
<path d="M6001 5227 c-8 -10 -7 -14 2 -14 8 0 14 6 14 14 0 7 -1 13 -2 13 -2
0 -8 -6 -14 -13z"/>
<path d="M695 5190 c-3 -5 -1 -10 4 -10 6 0 11 5 11 10 0 6 -2 10 -4 10 -3 0
-8 -4 -11 -10z"/>
<path d="M6100 5170 c8 -5 20 -10 25 -10 6 0 3 5 -5 10 -8 5 -19 10 -25 10 -5
0 -3 -5 5 -10z"/>
<path d="M470 5096 c0 -2 7 -6 15 -10 8 -3 15 -1 15 4 0 6 -7 10 -15 10 -8 0
-15 -2 -15 -4z"/>
<path d="M510 5090 c0 -5 5 -10 11 -10 5 0 7 5 4 10 -3 6 -8 10 -11 10 -2 0
-4 -4 -4 -10z"/>
<path d="M6458 5048 c5 -5 16 -8 23 -6 8 3 3 7 -10 11 -17 4 -21 3 -13 -5z"/>
<path d="M345 5040 c-4 -6 -12 -7 -18 -3 -7 4 -6 -1 2 -10 10 -13 17 -15 27
-6 8 6 11 15 8 20 -7 12 -11 11 -19 -1z"/>
<path d="M250 4950 c0 -5 5 -10 11 -10 5 0 7 5 4 10 -3 6 -8 10 -11 10 -2 0
-4 -4 -4 -10z"/>
<path d="M6614 4852 c3 -5 0 -13 -6 -15 -9 -4 -10 -6 -1 -6 17 -1 25 16 12 25
-7 4 -9 3 -5 -4z"/>
<path d="M155 4630 c3 -5 8 -10 11 -10 2 0 4 5 4 10 0 6 -5 10 -11 10 -5 0 -7
-4 -4 -10z"/>
<path d="M6702 4141 c-10 -6 -10 -10 3 -21 8 -7 18 -10 22 -6 3 3 1 6 -6 6 -8
0 -11 7 -7 15 6 17 6 18 -12 6z"/>
<path d="M6716 4028 c3 -4 11 -5 19 -1 21 7 19 12 -4 10 -11 0 -18 -5 -15 -9z"/>
<path d="M70 3750 c0 -5 5 -10 10 -10 6 0 10 5 10 10 0 6 -4 10 -10 10 -5 0
-10 -4 -10 -10z"/>
<path d="M6821 3573 c-1 -17 16 -25 25 -12 4 7 3 9 -4 5 -5 -3 -13 0 -15 6 -4
9 -6 10 -6 1z"/>
<path d="M6825 3450 c-3 -6 1 -7 9 -4 18 7 21 14 7 14 -6 0 -13 -4 -16 -10z"/>
<path d="M78 3369 c6 -7 12 -17 12 -22 0 -4 -6 -5 -12 -1 -9 5 -9 2 1 -9 7 -9
16 -17 19 -17 3 0 2 3 -1 7 -4 3 -3 11 3 17 6 8 2 16 -13 25 -18 11 -20 11 -9
0z"/>
<path d="M6817 3210 c9 -9 9 -17 2 -26 -14 -17 9 -30 24 -15 9 9 7 10 -8 5
-20 -7 -20 -7 0 17 11 13 16 21 11 17 -5 -4 -16 -2 -25 4 -13 10 -14 10 -4 -2z"/>
<path d="M6825 2930 c-3 -6 1 -7 9 -4 18 7 21 14 7 14 -6 0 -13 -4 -16 -10z"/>
<path d="M6773 2844 c0 -7 6 -10 14 -7 7 3 13 8 13 12 0 4 -6 8 -13 8 -8 0
-14 -6 -14 -13z"/>
<path d="M6766 2808 c3 -4 11 -5 19 -1 21 7 19 12 -4 10 -11 0 -18 -5 -15 -9z"/>
<path d="M6736 2688 c3 -5 10 -6 15 -3 13 9 11 12 -6 12 -8 0 -12 -4 -9 -9z"/>
<path d="M40 2660 c-8 -5 -12 -12 -9 -15 4 -3 12 1 19 10 14 17 11 19 -10 5z"/>
<path d="M6717 2534 c-3 -4 -2 -14 3 -24 5 -10 7 -19 5 -22 -3 -3 5 -13 17
-24 18 -15 20 -16 9 -1 -7 9 -11 17 -7 17 4 0 0 10 -9 23 -8 13 -12 27 -8 30
3 4 4 7 1 7 -2 0 -8 -3 -11 -6z"/>
<path d="M130 2325 c0 -8 2 -15 4 -15 2 0 6 7 10 15 3 8 1 15 -4 15 -6 0 -10
-7 -10 -15z"/>
<path d="M6741 2262 c-6 -11 -6 -24 0 -33 5 -7 9 -9 10 -4 0 6 2 20 3 33 3 27
0 28 -13 4z"/>
<path d="M6705 2140 c-3 -6 1 -7 9 -4 18 7 21 14 7 14 -6 0 -13 -4 -16 -10z"/>
<path d="M279 1896 c6 -7 8 -16 4 -20 -4 -4 0 -4 10 0 23 8 21 20 -4 27 -15 4
-18 2 -10 -7z"/>
<path d="M6607 1845 c-4 -8 -1 -17 5 -21 7 -4 8 -3 4 4 -4 7 -2 12 3 12 6 0
11 5 11 10 0 15 -17 12 -23 -5z"/>
<path d="M315 1779 c-10 -15 3 -25 16 -12 7 7 7 13 1 17 -6 3 -14 1 -17 -5z"/>
<path d="M330 1715 c0 -16 21 -43 37 -49 17 -6 17 -5 0 8 -10 7 -16 19 -15 26
2 7 -3 15 -9 17 -7 3 -13 2 -13 -2z"/>
<path d="M550 1571 c0 -6 4 -13 10 -16 6 -3 7 1 4 9 -7 18 -14 21 -14 7z"/>
<path d="M735 1519 c-4 -6 -5 -12 -2 -15 2 -3 7 2 10 11 7 17 1 20 -8 4z"/>
<path d="M6135 1510 c-10 -11 -16 -22 -14 -24 2 -2 12 7 22 20 22 29 17 32 -8
4z"/>
<path d="M695 1510 c-3 -6 1 -7 9 -4 18 7 21 14 7 14 -6 0 -13 -4 -16 -10z"/>
<path d="M793 1485 c0 -8 4 -15 9 -15 4 0 8 4 8 9 0 6 -4 12 -8 15 -5 3 -9 -1
-9 -9z"/>
<path d="M1001 1391 c-8 -5 -9 -11 -3 -15 5 -3 12 1 16 9 6 17 6 18 -13 6z"/>
<path d="M5827 1364 c-8 -8 3 -34 15 -34 7 0 6 5 -1 13 -6 8 -8 17 -4 20 3 4
4 7 1 7 -2 0 -7 -3 -11 -6z"/>
<path d="M1070 1329 c0 -5 5 -7 10 -4 6 3 10 8 10 11 0 2 -4 4 -10 4 -5 0 -10
-5 -10 -11z"/>
<path d="M1170 1290 c-9 -6 -10 -10 -3 -10 6 0 15 5 18 10 8 12 4 12 -15 0z"/>
<path d="M1340 1170 c0 -5 5 -10 11 -10 5 0 7 5 4 10 -3 6 -8 10 -11 10 -2 0
-4 -4 -4 -10z"/>
<path d="M1370 1157 c0 -8 7 -18 16 -21 8 -3 12 -10 9 -16 -3 -5 -1 -10 4 -10
16 0 14 9 -9 37 -14 17 -20 21 -20 10z"/>
<path d="M5384 1035 c-4 -8 -10 -12 -15 -9 -5 3 -6 -2 -3 -10 6 -16 25 -23 23
-8 -3 20 2 32 13 26 7 -4 8 -3 4 4 -10 16 -15 15 -22 -3z"/>
<path d="M1517 1024 c-4 -4 -7 -12 -7 -18 0 -6 5 -4 11 4 9 12 10 12 6 -5 -3
-15 2 -20 20 -21 19 -2 21 0 11 10 -7 6 -18 17 -24 24 -6 7 -13 9 -17 6z"/>
<path d="M5186 804 c-6 -14 11 -30 21 -20 4 3 0 6 -7 6 -9 0 -8 4 4 13 16 12
16 14 3 14 -9 0 -18 -6 -21 -13z"/>
<path d="M1710 729 c0 -5 5 -7 10 -4 6 3 10 8 10 11 0 2 -4 4 -10 4 -5 0 -10
-5 -10 -11z"/>
<path d="M1720 703 c32 -12 40 -24 29 -45 -8 -15 -8 -19 0 -14 6 4 11 4 11 -1
0 -4 10 -19 21 -33 l21 -25 -16 28 c-9 15 -14 31 -12 36 9 13 -33 61 -52 60
-14 0 -14 -2 -2 -6z"/>
<path d="M1993 481 c1 -12 6 -17 16 -13 10 4 11 7 3 10 -7 2 -10 8 -6 13 3 5
1 9 -5 9 -5 0 -9 -9 -8 -19z"/>
<path d="M4750 419 c0 -5 5 -7 10 -4 6 3 10 8 10 11 0 2 -4 4 -10 4 -5 0 -10
-5 -10 -11z"/>
<path d="M2300 370 c0 -5 5 -10 11 -10 5 0 7 5 4 10 -3 6 -8 10 -11 10 -2 0
-4 -4 -4 -10z"/>
<path d="M2363 355 c0 -8 4 -12 9 -9 5 3 6 10 3 15 -9 13 -12 11 -12 -6z"/>
<path d="M2483 329 c9 -6 15 -14 13 -18 -3 -4 4 -8 15 -8 18 -2 18 0 -4 18
-14 10 -29 19 -34 19 -4 0 0 -5 10 -11z"/>
<path d="M4420 331 c0 -7 -5 -9 -12 -5 -6 4 -8 3 -5 -3 8 -13 50 -9 53 6 2 7
0 7 -3 1 -3 -8 -9 -7 -19 1 -11 9 -14 9 -14 0z"/>
<path d="M2571 307 c-9 -12 -9 -17 0 -23 8 -4 9 -3 5 4 -4 7 -2 12 3 12 6 0
11 -5 11 -12 0 -6 3 -9 6 -5 3 3 2 13 -3 22 -8 14 -11 14 -22 2z"/>
<path d="M4315 289 c-3 -4 2 -6 10 -5 21 3 28 13 10 13 -9 0 -18 -4 -20 -8z"/>
<path d="M3050 251 c0 -9 30 -24 36 -18 2 1 -6 8 -16 15 -11 7 -20 8 -20 3z"/>
<path d="M3795 250 c-4 -6 -13 -9 -21 -6 -8 3 -11 0 -7 -10 4 -10 9 -12 18 -4
7 6 21 8 31 4 11 -3 15 -2 9 3 -5 4 -13 12 -16 16 -4 5 -10 3 -14 -3z"/>
<path d="M3871 244 c0 -11 3 -14 6 -6 3 7 2 16 -1 19 -3 4 -6 -2 -5 -13z"/>
</g>
</svg>
